<svg width="24" height="24" viewBox="0 0 24 24" fill="none" xmlns="http://www.w3.org/2000/svg">
<g clip-path="url(#clip0_189_173)">
<path d="M0 18.5626C0.132372 17.972 0.504031 17.5647 0.936784 17.1574C2.41833 15.7726 3.1871 14.0467 3.24311 12.0204C3.27365 10.9054 3.24311 9.78533 3.25329 8.66526C3.28893 5.2796 5.65125 2.30123 8.93509 1.48155C9.47985 1.34409 9.92278 1.5681 10.045 2.03649C10.1672 2.50488 9.87696 2.90709 9.34238 3.05983C7.11243 3.69114 5.67162 5.12177 5.07085 7.35681C4.94357 7.82521 4.90284 8.32415 4.88757 8.8129C4.86211 9.7446 4.87739 10.6763 4.88248 11.608C4.89775 14.398 3.87442 16.7297 1.7972 18.5982C1.71574 18.6746 1.62919 18.863 1.66483 18.9292C1.72083 19.0259 1.88375 19.1073 2.00594 19.1124C2.74417 19.1277 3.4773 19.1226 4.21553 19.1226C9.30675 19.1226 14.398 19.1226 19.4841 19.1226C19.5503 19.1226 19.6266 19.143 19.6877 19.1175C19.8099 19.0717 19.9728 19.0259 20.0238 18.9292C20.0594 18.8579 19.9728 18.6848 19.8914 18.5982C19.4179 18.0586 18.9037 17.5545 18.4608 16.9894C18.1553 16.6025 17.9313 16.1443 17.6971 15.7064C17.4781 15.2838 17.6462 14.8053 18.0484 14.6016C18.4608 14.398 18.9291 14.5507 19.143 14.9835C19.6165 15.9457 20.263 16.7705 21.0776 17.468C21.658 17.9669 21.8311 18.7917 21.5613 19.5146C21.2915 20.2427 20.6092 20.7365 19.8252 20.7416C18.252 20.7518 16.6737 20.7467 15.1006 20.7416C14.8969 20.7416 14.8205 20.7925 14.7594 20.9962C14.2503 22.6559 13.1404 23.6436 11.4247 23.9542C11.3738 23.9644 11.328 23.9847 11.2821 24C10.9767 24 10.6712 24 10.3657 24C10.3199 23.9847 10.2741 23.9593 10.2283 23.9542C8.68053 23.6742 7.61646 22.7934 7.02588 21.3373C6.94951 21.1489 6.90369 20.9504 6.8426 20.7467C6.74586 20.7467 6.65422 20.7467 6.56258 20.7467C5.04031 20.7467 3.51803 20.7467 1.99067 20.7467C1.00297 20.7467 0.305473 20.2121 0.045821 19.2601C0.0356385 19.2295 0.0152737 19.2041 0 19.1735C0 18.9699 0 18.7662 0 18.5626ZM13.1048 20.762C11.5978 20.762 10.0908 20.762 8.5787 20.762C8.80781 21.6733 9.85151 22.3912 10.9003 22.3708C11.8982 22.3555 12.9266 21.6071 13.1048 20.762Z" fill="white"/>
<path d="M17.5851 12.224C14.2045 12.2087 11.4756 9.47476 11.4858 6.09928C11.496 2.71362 14.2503 -0.0152709 17.6309 2.7682e-06C20.9962 0.0152764 23.7302 2.77981 23.7098 6.15019C23.6945 9.5104 20.9453 12.2393 17.5851 12.224ZM17.5953 10.8137C20.1867 10.8188 22.2996 8.71617 22.3046 6.12983C22.3097 3.53331 20.1969 1.41027 17.6054 1.41027C15.014 1.41027 12.9113 3.50276 12.9012 6.09928C12.891 8.70089 14.9886 10.8137 17.5953 10.8137Z" fill="white"/>
</g>
<defs>
<clipPath id="clip0_189_173">
<rect width="23.7149" height="24" fill="white"/>
</clipPath>
</defs>
</svg>
