<svg width="25" height="25" viewBox="0 0 25 25" fill="none" xmlns="http://www.w3.org/2000/svg">
<path d="M22.7956 25C22.3447 25 21.8437 25 21.3928 25C21.3427 25 21.3427 24.9499 21.2926 24.9499C20.6914 24.7495 20.3908 24.2986 20.3908 23.6974C20.3908 23.5972 20.3908 23.497 20.3908 23.3968C15.0802 23.3968 9.81964 23.3968 4.55912 23.3968C4.55912 23.5972 4.60922 23.7976 4.55912 23.998C4.45892 24.5491 4.10822 24.8497 3.60721 25.0501C3.15631 25.0501 2.65531 25.0501 2.20441 25.0501L2.15431 25C1.55311 24.7495 1.30261 24.3487 1.25251 23.7475C1.25251 23.6473 1.25251 23.5471 1.25251 23.3968C0.601202 23.3467 0.200401 22.996 0 22.3948C0 20.5411 0 18.6874 0 16.8337C0.150301 16.483 0.350701 16.1323 0.701403 15.982C0.901804 15.9319 0.951904 15.7816 1.002 15.6313C1.55311 13.477 2.05411 11.3727 2.60521 9.21844C2.85571 8.31663 2.95591 7.41483 2.95591 6.51303C2.90581 4.85972 2.95591 3.15631 2.95591 1.50301C2.95591 1.40281 2.95591 1.30261 2.95591 1.2024C2.95591 0.501002 3.50701 0 4.15832 0C9.71944 0 15.2806 0 20.7916 0C20.8918 0 20.992 0 21.0922 0.0501002C21.6934 0.200401 22.0441 0.701403 22.0441 1.40281C22.0441 3.50701 22.0441 5.56112 22.0441 7.66533C22.0441 7.81563 22.0441 7.91583 22.0942 8.06613C22.7455 10.6212 23.3968 13.1764 24.0481 15.7816C24.0481 15.8818 24.1483 15.982 24.2485 16.0321C24.6994 16.2826 25 16.6333 25 17.1844C25 18.8377 25 20.5411 25 22.1944C25 22.7956 24.6493 23.2465 24.0481 23.3968C23.9479 23.3968 23.8477 23.4469 23.7475 23.4469C23.7475 23.5471 23.7475 23.6974 23.7475 23.7976C23.7475 24.2986 23.5471 24.6493 23.1463 24.8998C23.0461 24.8998 22.9459 24.9499 22.7956 25ZM12.5251 16.6834C8.81764 16.6834 5.11022 16.6834 1.40281 16.6834C0.951904 16.6834 0.801603 16.8337 0.801603 17.2846C0.801603 18.8377 0.801603 20.3908 0.801603 21.9439C0.801603 22.3948 0.951904 22.5451 1.40281 22.5451C8.81764 22.5451 16.1824 22.5451 23.5972 22.5451C24.0481 22.5451 24.1984 22.3948 24.1984 21.9439C24.1984 20.3908 24.1984 18.8878 24.1984 17.3347C24.1984 16.7836 24.0982 16.6834 23.5471 16.6834C19.8397 16.6834 16.1824 16.6834 12.5251 16.6834ZM23.1964 15.8317C23.1964 15.7816 23.1964 15.7816 23.1964 15.7816C22.8457 14.3287 22.495 12.9259 22.1443 11.4729C22.0942 11.3226 21.994 11.3226 21.8938 11.3226C15.6814 11.3226 9.41884 11.3226 3.20641 11.3226C3.05611 11.3226 2.95591 11.3727 2.90581 11.523C2.75551 12.1743 2.60521 12.7756 2.45491 13.4269C2.25451 14.2285 2.05411 15.0301 1.85371 15.8818C8.91784 15.8317 16.0822 15.8317 23.1964 15.8317ZM12.9259 7.46493C12.9259 6.91383 12.9259 6.41283 12.9259 5.86172C12.9259 5.11022 13.4269 4.55912 14.1784 4.55912C15.8818 4.55912 17.5852 4.55912 19.2385 4.55912C19.7896 4.55912 20.2405 4.90982 20.3908 5.46092C20.4409 5.61122 20.4409 5.81162 20.4409 6.01202C20.4409 6.51303 20.4409 6.96393 20.4409 7.46493C20.7415 7.46493 20.992 7.46493 21.2425 7.46493C21.2425 7.36473 21.2425 7.31463 21.2425 7.21443C21.2425 5.26052 21.2425 3.30661 21.2425 1.40281C21.2425 1.002 21.0922 0.851703 20.6914 0.851703C15.2305 0.851703 9.76954 0.851703 4.30862 0.851703C3.90782 0.851703 3.75752 1.002 3.75752 1.40281C3.75752 3.35671 3.75752 5.31062 3.75752 7.21443C3.75752 7.31463 3.75752 7.36473 3.75752 7.46493C4.05812 7.46493 4.30862 7.46493 4.55912 7.46493C4.55912 7.41483 4.60922 7.41483 4.60922 7.41483C4.60922 6.86373 4.60922 6.31263 4.60922 5.76152C4.60922 5.11022 5.16032 4.60922 5.76152 4.55912C7.46493 4.55912 9.21844 4.55912 10.9218 4.55912C11.2224 4.55912 11.4729 4.70942 11.7234 4.90982C12.024 5.16032 12.1242 5.51102 12.1242 5.91182C12.1242 6.41283 12.1242 6.91383 12.1242 7.46493C12.3748 7.46493 12.6253 7.46493 12.9259 7.46493ZM3.15631 10.3707C9.41884 10.3707 15.6313 10.3707 21.8437 10.3707C21.6934 9.66934 21.493 9.01804 21.3427 8.31663C21.1924 8.31663 21.0421 8.31663 20.8918 8.31663C20.7415 8.31663 20.5912 8.31663 20.4409 8.31663C20.3407 9.11824 19.8898 9.56914 19.0882 9.56914C18.0361 9.56914 16.9339 9.56914 15.8818 9.56914C15.2806 9.56914 14.6794 9.56914 14.0782 9.56914C13.5772 9.56914 13.1263 9.16834 12.976 8.66733C12.9259 8.56713 12.9259 8.46693 12.9259 8.31663C12.6754 8.31663 12.4248 8.31663 12.1743 8.31663C12.1743 8.36673 12.1242 8.36673 12.1242 8.41683C11.9238 9.21844 11.523 9.56914 10.7214 9.56914C10.02 9.56914 9.26854 9.56914 8.56713 9.56914C7.66533 9.56914 6.76353 9.56914 5.86172 9.56914C5.46092 9.56914 5.11022 9.41884 4.90982 9.06814C4.75952 8.86774 4.70942 8.61724 4.55912 8.31663C4.30862 8.31663 4.00802 8.31663 3.70741 8.31663C3.50701 9.01804 3.30661 9.71944 3.15631 10.3707ZM8.31663 8.76754C9.11824 8.76754 9.91984 8.76754 10.7214 8.76754C11.0721 8.76754 11.2224 8.61723 11.2224 8.26653C11.2224 7.46493 11.2224 6.66333 11.2224 5.91182C11.2224 5.61122 11.0721 5.46092 10.7214 5.46092C9.11824 5.46092 7.51503 5.46092 5.91182 5.46092C5.56112 5.46092 5.41082 5.61122 5.41082 5.96192C5.41082 6.71343 5.41082 7.51503 5.41082 8.26653C5.41082 8.61723 5.56112 8.76754 5.91182 8.76754C6.71343 8.76754 7.51503 8.76754 8.31663 8.76754ZM16.6834 8.76754C17.485 8.76754 18.2866 8.76754 19.0882 8.76754C19.4389 8.76754 19.5892 8.61723 19.5892 8.26653C19.5892 7.51503 19.5892 6.71343 19.5892 5.96192C19.5892 5.61122 19.4389 5.46092 19.0882 5.46092C17.485 5.46092 15.8818 5.46092 14.2786 5.46092C13.9279 5.46092 13.7776 5.61122 13.7776 5.96192C13.7776 6.76353 13.7776 7.51503 13.7776 8.31663C13.7776 8.66733 13.9279 8.81764 14.2786 8.81764C15.0802 8.76754 15.8818 8.76754 16.6834 8.76754ZM2.10421 23.3467C2.10421 23.497 2.10421 23.5972 2.10421 23.6974C2.10421 23.998 2.25451 24.1483 2.50501 24.1483C2.75551 24.1483 3.05611 24.1483 3.30661 24.1483C3.55711 24.1483 3.70741 23.998 3.70741 23.7475C3.70741 23.5972 3.70741 23.497 3.70741 23.3467C3.20641 23.3467 2.65531 23.3467 2.10421 23.3467ZM21.2425 23.3467C21.2425 23.4469 21.2425 23.5471 21.2425 23.6473C21.2425 23.998 21.3928 24.1483 21.7435 24.1483C21.994 24.1483 22.1944 24.1483 22.4449 24.1483C22.6453 24.1483 22.8457 24.0481 22.8457 23.7976C22.8457 23.6473 22.8457 23.497 22.8457 23.3467C22.3447 23.3467 21.8437 23.3467 21.2425 23.3467Z" fill="#5AA058"/>
</svg>
