<svg width="29" height="25" viewBox="0 0 29 25" fill="none" xmlns="http://www.w3.org/2000/svg">
<g clip-path="url(#clip0_189_182)">
<path d="M27.6764 22.3844C27.6764 23.0535 27.6764 23.7835 27.6764 24.4526C27.6764 24.8783 27.6156 25 27.129 25C26.764 25 26.399 25 25.9732 25C25.6083 25 25.5475 24.8783 25.4866 24.5134C25.4866 24.1484 25.4866 23.7835 25.4866 23.4185C25.4866 22.8102 25 22.3236 24.3309 22.3236C20.9854 22.3236 17.6399 22.3236 14.2944 22.3236C13.6253 22.3236 13.1387 22.8102 13.1387 23.5401C13.1387 23.9051 13.1387 24.2701 13.1387 24.635C13.1387 24.8783 13.017 25 12.7737 25C12.3479 25 11.8613 25 11.4355 25C11.1314 25 11.0097 24.8175 11.0097 24.5742C11.0097 23.9659 11.0097 23.3577 11.0097 22.6886C11.0097 22.5669 11.0097 22.5061 11.0097 22.3844C10.1582 22.2019 9.73237 21.837 9.79319 21.2287C9.79319 20.6204 10.219 20.2555 11.0097 20.1946C11.0097 17.3966 11.0097 14.5985 11.0097 11.8005C10.9489 11.8005 10.8273 11.8005 10.7664 11.7397C10.1582 11.6788 9.73237 11.1922 9.79319 10.5839C9.85402 10.0365 10.2798 9.61071 10.8881 9.61071C15.6326 9.61071 20.3771 9.61071 25.1825 9.61071C25.3041 9.61071 25.4258 9.61071 25.5475 9.61071C25.9124 6.50852 24.3917 3.77129 21.5937 2.49392C20.8638 2.18978 20.073 2.0073 19.2822 1.94647C19.1606 1.94647 18.9781 1.88564 18.8565 1.76399C18.674 1.58151 18.8565 1.27737 19.1606 1.27737C20.1338 1.27737 21.0462 1.45985 21.9586 1.88564C24.6959 3.22384 26.1557 5.47445 26.2774 8.51581C26.2774 8.81995 26.2774 9.18491 26.2774 9.54988C26.5207 9.54988 26.764 9.54988 27.0073 9.54988C27.1898 7.3601 26.764 5.29197 25.365 3.58881C23.7226 1.58151 21.5937 0.608272 19.0389 0.608272C18.5523 0.608272 18.309 0.851581 18.309 1.3382C18.309 1.76399 18.309 2.12895 18.309 2.55474V2.61557C18.7348 2.6764 19.2214 2.73723 19.6472 2.85888C20.9246 3.16302 21.8978 3.89294 22.4453 5.10949C22.5061 5.17032 22.5669 5.23114 22.6886 5.29197C23.4793 5.53528 23.9051 6.26521 23.7226 7.05596C23.601 7.78589 22.8711 8.27251 22.1411 8.27251C21.3504 8.21168 20.8029 7.66423 20.6813 6.81265C20.6204 6.14355 21.0462 5.59611 21.7762 5.23114C21.5329 4.56204 21.0462 4.13625 20.438 3.77129C19.4647 3.22384 18.4307 3.16302 17.3358 3.22384C16.6667 3.28467 15.9976 3.40633 15.3893 3.77129C14.8419 4.07543 14.4161 4.56204 14.1728 5.17032C14.2944 5.23114 14.3552 5.23114 14.4161 5.29197C15.0852 5.59611 15.3893 6.32603 15.2068 7.05596C15.0243 7.72506 14.3552 8.21168 13.6861 8.21168C12.9562 8.15085 12.3479 7.66423 12.2263 6.87348C12.1046 6.20438 12.5304 5.53528 13.1995 5.29197C13.382 5.23114 13.5037 5.10949 13.5645 4.92701C14.0511 3.71046 15.0852 3.10219 16.3017 2.79805C16.7275 2.6764 17.1533 2.6764 17.5791 2.61557C17.5791 2.18978 17.5791 1.76399 17.5791 1.3382C17.5791 0.547445 18.0657 -7.40867e-07 18.8565 -7.40867e-07C22.8711 -0.121655 26.3382 2.49392 27.3723 6.20438C27.6764 7.23844 27.6764 8.27251 27.6764 9.3674C27.6764 9.42822 27.6764 9.54988 27.6764 9.67153C28.1022 9.67153 28.4672 9.73236 28.7105 10.0973C28.8321 10.2798 28.893 10.5231 28.893 10.7056C28.893 11.3139 28.528 11.618 27.6764 11.8005C27.6764 14.5985 27.6764 17.3966 27.6764 20.1946C28.4672 20.2555 28.893 20.6204 28.893 21.2895C28.9538 21.8978 28.528 22.2628 27.6764 22.3844ZM19.4039 20.8637C18.7956 20.8637 18.1265 20.8637 17.5183 20.8637C15.3893 20.8637 13.2603 20.8637 11.0706 20.8637C10.7056 20.8637 10.5231 20.9854 10.5231 21.2895C10.5231 21.5328 10.7056 21.7153 11.0706 21.7153H11.1314C16.6058 21.7153 22.1411 21.7153 27.6156 21.7153C27.6764 21.7153 27.7981 21.7153 27.8589 21.7153C28.0414 21.6545 28.2239 21.5328 28.2239 21.3504C28.2239 21.1071 28.163 20.9854 27.9197 20.9246C27.7981 20.8637 27.6764 20.9246 27.6156 20.9246C24.9392 20.8637 22.1411 20.8637 19.4039 20.8637ZM19.4039 10.2798C16.6667 10.2798 13.9294 10.2798 11.1922 10.2798C11.0706 10.2798 10.9489 10.2798 10.8881 10.2798C10.6448 10.2798 10.5231 10.4623 10.4623 10.6448C10.4623 10.8881 10.5839 11.0097 10.8273 11.0706C10.8881 11.0706 11.0097 11.0706 11.0706 11.0706C16.545 11.0706 22.0803 11.0706 27.5548 11.0706C27.6156 11.0706 27.7372 11.0706 27.7981 11.0706C28.0414 11.0097 28.163 10.8881 28.163 10.6448C28.163 10.4015 28.0414 10.2798 27.7981 10.2798C27.6764 10.2798 27.5548 10.2798 27.4939 10.2798C24.8784 10.2798 22.1411 10.2798 19.4039 10.2798ZM16.8492 11.8005C16.8492 14.5985 16.8492 17.3966 16.8492 20.1946C17.3358 20.1946 17.8224 20.1946 18.309 20.1946C18.309 17.3966 18.309 14.5985 18.309 11.8005C17.8224 11.8005 17.3358 11.8005 16.8492 11.8005ZM21.9586 20.1946C21.9586 17.3966 21.9586 14.5985 21.9586 11.8005C21.472 11.8005 20.9854 11.8005 20.4988 11.8005C20.4988 14.5985 20.4988 17.3966 20.4988 20.1946C20.9854 20.1946 21.472 20.1946 21.9586 20.1946ZM24.0876 11.8005C24.0876 14.5985 24.0876 17.3966 24.0876 20.1946C24.5742 20.1946 25.0608 20.1946 25.5475 20.1946C25.5475 17.3966 25.5475 14.5985 25.5475 11.8005C25.0608 11.8005 24.5742 11.8005 24.0876 11.8005ZM13.2603 11.8005C13.2603 14.5985 13.2603 17.3966 13.2603 20.1946C13.747 20.1946 14.2336 20.1946 14.7202 20.1946C14.7202 17.3966 14.7202 14.5985 14.7202 11.8005C14.2336 11.8005 13.747 11.8005 13.2603 11.8005ZM27.0681 20.1946C27.0681 17.3966 27.0681 14.5985 27.0681 11.7397C26.764 11.7397 26.5207 11.7397 26.2774 11.7397C26.2774 14.5377 26.2774 17.3358 26.2774 20.1946C26.5207 20.1946 26.764 20.1946 27.0681 20.1946ZM12.5912 20.1946C12.5912 17.3966 12.5912 14.5985 12.5912 11.7397C12.2871 11.7397 12.0438 11.7397 11.8005 11.7397C11.8005 14.5377 11.8005 17.3358 11.8005 20.1946C12.0438 20.1946 12.2871 20.1946 12.5912 20.1946ZM15.3893 11.8005C15.3893 14.5985 15.3893 17.3966 15.3893 20.1946C15.6934 20.1946 15.9367 20.1946 16.1801 20.1946C16.1801 17.3966 16.1801 14.5985 16.1801 11.8005C15.9367 11.8005 15.6326 11.8005 15.3893 11.8005ZM19.8297 20.1946C19.8297 17.3966 19.8297 14.5985 19.8297 11.7397C19.5256 11.7397 19.2822 11.7397 19.0389 11.7397C19.0389 14.5377 19.0389 17.3358 19.0389 20.1946C19.2822 20.1946 19.5256 20.1946 19.8297 20.1946ZM23.4185 20.1946C23.4185 17.3966 23.4185 14.5985 23.4185 11.7397C23.1144 11.7397 22.8711 11.7397 22.6277 11.7397C22.6277 14.5377 22.6277 17.3358 22.6277 20.1946C22.8711 20.1946 23.1752 20.1946 23.4185 20.1946ZM22.2628 7.66423C22.7494 7.66423 23.1752 7.23844 23.1752 6.81265C23.1752 6.32603 22.7494 5.96107 22.3236 5.96107C21.837 5.96107 21.4112 6.32603 21.4112 6.81265C21.3504 7.23844 21.7762 7.66423 22.2628 7.66423ZM13.8078 5.90024C13.3212 5.90024 12.8954 6.32603 12.9562 6.81265C12.9562 7.29927 13.382 7.66423 13.8686 7.66423C14.3552 7.66423 14.781 7.23844 14.7202 6.75182C14.6594 6.26521 14.2944 5.90024 13.8078 5.90024ZM12.5912 24.3309C12.5912 23.601 12.5304 22.9319 13.017 22.3236C12.5912 22.3236 12.1655 22.3236 11.8005 22.3236C11.8005 22.9927 11.8005 23.6618 11.8005 24.3309C12.0438 24.3309 12.2871 24.3309 12.5912 24.3309ZM27.0681 24.3309C27.0681 23.6618 27.0681 22.9927 27.0681 22.3236C26.6423 22.3236 26.2774 22.3236 25.7908 22.3236C26.3382 22.9319 26.1557 23.6618 26.2166 24.3309C26.5207 24.3309 26.764 24.3309 27.0681 24.3309Z" fill="#00477F"/>
<path d="M8.6983 19.9513C8.27251 19.3431 7.78589 18.7956 7.17762 18.3698C7.05597 18.2482 6.87348 18.1874 6.75183 18.0657C6.99514 17.7007 7.29927 17.3966 7.48176 16.9708C7.66424 16.6058 7.72507 16.1192 7.78589 15.6934C7.78589 15.6934 7.90755 15.6934 7.96837 15.6326C8.45499 15.511 8.88078 15.0852 8.94161 14.5985C9.06326 13.747 8.21168 12.5912 7.29927 12.4696C7.17762 12.4696 7.05597 12.4696 6.93431 12.4696C6.32604 12.5304 6.0219 12.8954 5.77859 13.4428C4.86618 13.0779 3.95378 13.0779 3.04137 13.4428C2.6764 12.6521 2.18979 12.3479 1.52069 12.5304C0.790759 12.7737 0.304141 13.382 0.0608319 14.1119C-0.182477 14.8419 0.243314 15.511 1.03407 15.6934C1.0949 15.6934 1.15572 15.7543 1.27738 15.7543C1.21655 16.7275 1.58151 17.4574 2.31144 18.0657C2.31144 18.1265 2.31144 18.1265 2.31144 18.1265C2.18979 18.1874 2.12896 18.2482 2.0073 18.309C1.27738 18.7956 0.729932 19.4039 0.243314 20.1338C-0.0608226 20.6813 -0.0608226 21.2287 0.243314 21.7153C0.364968 21.8978 0.54745 22.0803 0.669104 22.2628C0.425795 22.6277 0.486623 23.1144 0.486623 23.5401C0.486623 24.2093 0.912413 24.7567 1.58151 24.9392C2.25061 25.1217 2.91971 24.8175 3.22385 24.2092C3.3455 24.0268 3.40633 24.0268 3.58881 24.0268C4.19708 24.0268 4.80536 24.0268 5.41363 24.0268C5.59611 24.0268 5.71777 24.0268 5.77859 24.2092C6.08273 24.7567 6.691 25.0608 7.29927 24.9392C7.90755 24.8175 8.39417 24.3917 8.51582 23.7835C8.57665 23.236 8.57665 22.6886 8.33334 22.202C9.12409 21.5329 9.24575 20.8638 8.6983 19.9513ZM6.56935 13.6253C6.691 13.2603 7.05597 13.0779 7.42093 13.1995C7.90755 13.3212 8.39417 14.0511 8.39417 14.4769C8.39417 14.8419 8.15086 15.0852 7.72507 15.0852C7.66424 15.0852 7.54258 15.0243 7.54258 14.9635C7.29927 14.5377 6.99514 14.1728 6.63017 13.8686C6.56935 13.8078 6.50852 13.6861 6.56935 13.6253ZM1.27738 15.0852C0.851586 15.0852 0.54745 14.6594 0.729932 14.2336C0.912413 13.9294 1.0949 13.5645 1.39903 13.3212C1.88565 12.8954 2.37227 13.1387 2.55475 13.747C2.12896 14.0511 1.76399 14.4161 1.45986 14.9635C1.45986 15.0243 1.3382 15.0852 1.27738 15.0852ZM1.94648 16.545C1.70317 15.8151 1.94648 15.0243 2.61558 14.4769C3.64964 13.6253 5.29198 13.6253 6.32604 14.4769C7.3601 15.3285 7.3601 16.6667 6.32604 17.5183C5.90025 17.8832 5.41363 18.0657 4.80536 18.1265C4.80536 17.8832 4.86618 17.7616 5.10949 17.6399C5.47446 17.5183 5.71777 17.2749 5.71777 16.8492C5.71777 16.4234 5.41363 16.1192 4.98784 16.0584C4.6837 16.0584 4.44039 16.0584 4.13626 16.0584C3.77129 16.0584 3.52799 16.2409 3.40633 16.6058C3.28468 16.91 3.40633 17.2141 3.64964 17.4574C3.71047 17.5183 3.83212 17.6399 3.95378 17.6399C4.19708 17.7007 4.25791 17.8224 4.19708 18.1265C4.0146 18.0657 3.77129 18.0657 3.58881 18.0049C2.85889 17.7616 2.25061 17.3358 1.94648 16.545ZM4.56205 17.2141C4.50122 17.2141 4.44039 17.2141 4.44039 17.1533C4.25791 17.0316 4.0146 16.91 4.0146 16.8492C4.0146 16.6058 4.31874 16.7275 4.44039 16.7275C4.56205 16.7275 4.74453 16.7275 4.86618 16.7275C4.92701 16.7275 4.98784 16.7883 5.04867 16.8492C5.04867 16.91 5.04867 16.9708 4.98784 17.0316C4.86618 17.0316 4.6837 17.1533 4.56205 17.2141ZM0.669104 20.6813C0.729932 20.4988 0.851586 20.3771 0.912413 20.1947C1.15572 20.438 1.39903 20.6204 1.58151 20.8638C1.64234 20.9246 1.64234 21.5329 1.52069 21.5937C1.39903 21.6545 1.15572 21.7153 1.03407 21.6545C0.729932 21.472 0.54745 21.0462 0.669104 20.6813ZM2.73723 23.2968C2.73723 23.9659 2.61558 24.2092 2.18979 24.3309C1.70317 24.4526 1.21655 24.1484 1.21655 23.6618C1.21655 23.3577 1.21655 23.1144 1.21655 22.8102C1.21655 22.4453 1.58151 22.1411 2.0073 22.1411C2.43309 22.1411 2.73723 22.4453 2.79806 22.8102C2.73723 22.9927 2.73723 23.1144 2.73723 23.2968ZM5.65694 23.3577C4.92701 23.5402 4.19708 23.5402 3.40633 23.3577C3.40633 23.1752 3.40633 22.9927 3.40633 22.8102C4.13626 22.8102 4.86618 22.8102 5.65694 22.8102C5.65694 22.9927 5.65694 23.1144 5.65694 23.3577ZM5.96108 22.0195C5.90025 22.0803 5.83942 22.0803 5.77859 22.0803C4.92701 22.0803 4.07543 22.0803 3.22385 22.0803C3.16302 22.0803 3.04137 22.0195 2.98054 21.9586C2.73723 21.7762 2.49392 21.6545 2.18979 21.4112C2.31144 21.1679 2.37227 20.8029 2.55475 20.4988C2.6764 20.3163 2.79806 20.1338 2.55475 19.9513C2.31144 19.7689 2.18979 19.9513 2.0073 20.1338L1.94648 20.1947C1.76399 20.0122 1.52069 19.8297 1.3382 19.5864C1.76399 19.0998 2.25061 18.7348 2.79806 18.4915C2.85889 18.4307 2.98054 18.4307 3.10219 18.4915C4.07543 18.8565 4.98784 18.8565 5.96108 18.4915C6.0219 18.4307 6.20438 18.4307 6.26521 18.4915C6.75183 18.8565 7.23845 19.1606 7.72507 19.5255C7.48176 19.7689 7.23845 19.9513 7.05597 20.1338C6.93431 19.9513 6.81266 19.708 6.50852 19.8905C6.20438 20.073 6.44769 20.3163 6.50852 20.4988C6.63017 20.8029 6.75183 21.1071 6.81266 21.3504C6.50852 21.6545 6.26521 21.837 5.96108 22.0195ZM7.84672 23.6618C7.78589 24.0876 7.42093 24.3309 7.05597 24.3309C6.63018 24.3309 6.32604 23.9659 6.32604 23.5401C6.32604 23.4185 6.32604 23.3577 6.32604 23.236L6.44769 22.5669C6.56935 22.2628 6.87348 22.0803 7.23845 22.1411C7.54258 22.202 7.84672 22.3844 7.90755 22.6886C7.90755 23.0535 7.90755 23.3577 7.84672 23.6618ZM8.39417 21.1679C8.33334 21.472 8.15086 21.6545 7.84672 21.6545C7.66424 21.6545 7.48176 21.6545 7.42093 21.3504C7.3601 20.9854 7.42093 20.8029 7.66424 20.5596C7.78589 20.438 7.90755 20.3163 8.09003 20.1338C8.27251 20.4988 8.45499 20.7421 8.39417 21.1679Z" fill="#00477F"/>
<path d="M19.0389 5.90024C18.7956 5.53528 18.6131 5.17031 18.3698 4.80535C18.1874 4.50121 17.8832 4.50121 17.7007 4.80535C17.7007 4.80535 16.91 5.96107 16.8492 6.44769C16.8492 6.63017 16.9708 6.81265 17.0316 6.99513C17.2141 7.36009 17.3966 7.66423 17.6399 7.96837C17.8832 8.39416 18.309 8.39416 18.5523 7.96837C18.7348 7.66423 18.9173 7.29927 19.0998 6.99513C19.2822 6.56934 19.2214 6.20438 19.0389 5.90024ZM18.4915 6.56934C18.3698 6.87348 18.1874 7.11679 18.0049 7.42092C17.8224 7.11679 17.6399 6.81265 17.4574 6.50851C17.3966 6.44769 17.4574 6.2652 17.5183 6.20438C17.6399 5.96107 17.8224 5.71776 18.0049 5.41362C18.1874 5.71776 18.3698 5.96107 18.4915 6.2652C18.5523 6.38686 18.5523 6.50851 18.4915 6.56934Z" fill="#00477F"/>
<path d="M5.77859 15.2068C5.59611 15.146 5.47446 15.3285 5.47446 15.5109C5.47446 15.6326 5.65694 15.8151 5.77859 15.8151C5.90025 15.8151 6.14356 15.7543 6.14356 15.5718C6.20438 15.4501 5.96107 15.2068 5.77859 15.2068Z" fill="#00477F"/>
<path d="M3.22384 15.2068C3.10219 15.2068 2.98054 15.3893 2.91971 15.5109C2.91971 15.6934 3.04136 15.8151 3.22384 15.8151C3.3455 15.8151 3.58881 15.6934 3.58881 15.5718C3.58881 15.4501 3.52798 15.2068 3.22384 15.2068Z" fill="#00477F"/>
</g>
<defs>
<clipPath id="clip0_189_182">
<rect width="28.9538" height="25" fill="white"/>
</clipPath>
</defs>
</svg>
