<svg width="39" height="22" viewBox="0 0 39 22" fill="none" xmlns="http://www.w3.org/2000/svg">
<path d="M5.70754 18.1604C4.15093 17.9528 3.1132 17.1226 2.6981 15.6698C1.76414 12.9717 0.933951 10.3774 0.103762 7.67924C-0.415106 5.91509 0.62263 4.25472 2.28301 3.9434C3.00942 3.83962 3.73584 3.9434 4.46225 4.35849C4.46225 3.73585 4.46225 3.11321 4.56603 2.59434C4.87735 1.03774 6.2264 0 7.78301 0C15.566 0 23.349 0 31.1321 0C32.8962 0 34.349 1.45283 34.349 3.21698C34.349 3.5283 34.349 3.9434 34.349 4.25472C34.8679 4.15094 35.3868 3.9434 35.9056 3.9434C37.8773 3.9434 39.3302 5.70755 38.7075 7.67924C37.8773 10.4811 37.0472 13.1792 36.1132 15.9811C35.6981 17.3302 34.6604 18.0566 33.1038 18.2642C33.2075 19.0943 33.4151 19.8208 33.5189 20.6509C33.5189 20.9623 33.6226 21.1698 33.6226 21.4811C33.6226 21.8962 33.4151 22.2075 33 22.2075H32.8962C31.0283 22.2075 31.5472 22.5189 30.5094 20.9623C29.9905 20.2358 29.4717 19.4057 28.9528 18.5755C28.849 18.3679 28.7453 18.2642 28.4339 18.2642C22.4151 18.2642 16.3962 18.2642 10.3773 18.2642C10.1698 18.2642 9.96225 18.3679 9.85848 18.5755C9.13206 19.6132 8.40565 20.6509 7.78301 21.7925C7.57546 22.1038 7.36791 22.3113 6.95282 22.2075C6.6415 22.2075 6.33018 22.2075 6.01886 22.2075C5.39621 22.2075 5.18867 21.8962 5.29244 21.2736C5.39621 20.4434 5.60376 19.5094 5.70754 18.6792C5.70754 18.4717 5.70754 18.2642 5.70754 18.1604ZM31.8585 10.1698C32.1698 9.0283 32.5849 7.99057 32.8962 6.95283C33 6.74528 33 6.53774 33 6.33019C33 5.29245 33 4.35849 33 3.32075C33 2.17925 32.1698 1.34906 31.0283 1.34906C23.349 1.34906 15.566 1.34906 7.88678 1.34906C6.6415 1.34906 5.91508 2.17925 5.81131 3.42453C5.81131 4.15094 5.81131 4.87736 5.81131 5.5C5.81131 6.22642 5.91508 6.84906 6.12263 7.57547C6.43395 8.30189 6.6415 9.23585 6.95282 10.1698C7.67923 9.23585 8.61319 9.0283 9.65093 9.13208C12.2453 9.13208 14.8396 9.13208 17.4339 9.13208C18.0566 9.13208 18.6792 9.33962 19.1981 9.75472C19.3019 9.85849 19.4056 9.85849 19.4056 9.96226C20.0283 9.33962 20.7547 9.13208 21.5849 9.13208C24.0755 9.13208 26.6698 9.13208 29.1604 9.13208C30.3019 9.0283 31.1321 9.23585 31.8585 10.1698ZM19.4056 16.8113C21.6887 16.8113 23.9717 16.8113 26.2547 16.8113C28.4339 16.8113 30.717 16.8113 32.8962 16.8113C33.9339 16.8113 34.5566 16.2925 34.8679 15.3585C35.0755 14.8396 35.1792 14.3208 35.283 13.9057C35.9056 11.7264 36.6321 9.54717 37.2547 7.4717C37.566 6.43396 37.0472 5.5 36.1132 5.29245C35.283 5.08491 34.5566 5.60377 34.2453 6.53774C33.6226 8.61321 32.8962 10.7925 32.2736 12.8679C32.066 13.5943 31.9622 13.5943 31.2358 13.5943C23.2453 13.5943 15.2547 13.5943 7.26414 13.5943C6.53772 13.5943 6.43395 13.4906 6.2264 12.7642C5.60376 10.6887 4.87735 8.50943 4.2547 6.43396C4.15093 5.5 3.42452 5.08491 2.59433 5.18868C1.55659 5.39623 1.1415 6.33019 1.45282 7.36792C2.28301 9.96226 3.1132 12.5566 3.94338 15.1509C4.35848 16.2925 4.87735 16.8113 6.12263 16.8113C10.4811 16.8113 14.9434 16.8113 19.4056 16.8113ZM18.783 12.2453C18.9906 11 18.3679 10.2736 17.0189 10.2736C14.4245 10.2736 11.8302 10.2736 9.33961 10.2736C8.1981 10.2736 7.57546 11.1038 7.88678 12.2453C11.5189 12.2453 15.1509 12.2453 18.783 12.2453ZM20.0283 12.2453C23.7641 12.2453 27.3962 12.2453 31.0283 12.2453C31.0283 12.0377 31.0283 11.8302 31.0283 11.6226C31.0283 10.8962 30.5094 10.2736 29.6792 10.2736C26.8773 10.2736 24.1792 10.2736 21.3773 10.2736C20.6509 10.2736 20.0283 10.7925 20.0283 11.6226C20.0283 11.8302 20.0283 12.0377 20.0283 12.2453ZM7.05659 18.1604C6.95282 18.9906 6.74527 19.8208 6.6415 20.6509H6.74527C7.26414 19.8208 7.88678 18.9906 8.50942 18.0566C7.99055 18.1604 7.57546 18.1604 7.05659 18.1604ZM31.8585 18.1604C31.3396 18.1604 30.9245 18.1604 30.4056 18.1604C31.0283 19.0943 31.5472 19.9245 32.1698 20.7547C32.1698 20.7547 32.2736 20.7547 32.2736 20.6509C32.066 19.8208 31.9622 18.9906 31.8585 18.1604Z" fill="#5AA058"/>
</svg>
