<svg width="25" height="25" viewBox="0 0 25 25" fill="none" xmlns="http://www.w3.org/2000/svg">
<path d="M8.09133e-06 14.3484C0.187978 13.9098 0.501261 13.7845 1.00251 13.7845C1.50377 13.7845 1.94236 13.7845 2.44362 13.7845C2.44362 13.6591 2.44362 13.5965 2.44362 13.4712C2.44362 12.782 2.44362 12.0927 2.44362 11.4035C2.44362 10.7769 2.7569 10.5263 3.32081 10.5263C3.57144 10.5263 3.75941 10.5263 4.01003 10.5263C4.44863 10.5263 4.76191 10.8396 4.76191 11.3409C4.76191 12.0301 4.76191 12.782 4.76191 13.4712C4.76191 13.5338 4.76191 13.6591 4.76191 13.7845C4.88723 13.7845 5.01254 13.7845 5.13785 13.7845C11.4035 13.7845 17.7318 13.7845 23.9975 13.7845C24.1855 13.7845 24.3734 13.7845 24.4988 13.8471C24.812 13.9724 25 14.2231 25 14.5363C25 17.7945 25 21.0526 25 24.3108C25 24.6867 24.6867 25.0627 24.2481 25.0627C24.1855 25.0627 24.1228 25.0627 24.0602 25.0627C17.6692 25.0627 11.2782 25.0627 4.88723 25.0627C4.82457 25.0627 4.76191 25.0627 4.69926 25.0627C4.44863 25.0627 4.32332 24.8747 4.32332 24.6867C4.32332 24.4987 4.51129 24.3108 4.69926 24.3108C5.45114 24.3108 6.20301 24.3108 6.95489 24.3108C7.01755 24.3108 7.08021 24.3108 7.20552 24.3108C7.20552 22.1178 7.20552 19.9875 7.20552 17.7945C5.01254 17.7945 2.88221 17.7945 0.689231 17.7945C0.689231 19.9875 0.689231 22.1178 0.689231 24.3108C0.939858 24.3108 1.12783 24.3108 1.3158 24.3108C1.94236 24.3108 2.50627 24.3108 3.13284 24.3108C3.38347 24.3108 3.57144 24.4361 3.57144 24.6867C3.57144 24.8747 3.38347 25.0627 3.13284 25.0627C2.38096 25.0627 1.62908 25.0627 0.877201 25.0627C0.438605 25.0627 0.0626647 24.9373 -0.125305 24.4987C8.09133e-06 21.1153 8.09133e-06 17.7318 8.09133e-06 14.3484ZM17.7318 24.2481C19.9248 24.2481 22.1178 24.2481 24.2481 24.2481C24.2481 22.0551 24.2481 19.9248 24.2481 17.7318C22.0551 17.7318 19.9248 17.7318 17.7318 17.7318C17.7318 19.9248 17.7318 22.1178 17.7318 24.2481ZM16.98 17.7318C13.9724 17.7318 11.0276 17.7318 8.02006 17.7318C8.02006 19.9248 8.02006 22.0551 8.02006 24.2481C11.0276 24.2481 13.9724 24.2481 16.98 24.2481C16.98 22.1178 16.98 19.9248 16.98 17.7318ZM16.98 14.5363C13.9724 14.5363 11.0276 14.5363 8.02006 14.5363C8.02006 15.3509 8.02006 16.1654 8.02006 16.9799C11.0276 16.9799 13.9724 16.9799 16.98 16.9799C16.98 16.1654 16.98 15.3509 16.98 14.5363ZM17.7318 16.9799C19.9248 16.9799 22.1178 16.9799 24.2481 16.9799C24.2481 16.1654 24.2481 15.3509 24.2481 14.5363C22.0551 14.5363 19.9248 14.5363 17.7318 14.5363C17.7318 15.3509 17.7318 16.1654 17.7318 16.9799ZM0.751888 16.9799C2.94487 16.9799 5.13785 16.9799 7.26818 16.9799C7.26818 16.1654 7.26818 15.3509 7.26818 14.5363C5.0752 14.5363 2.94487 14.5363 0.751888 14.5363C0.751888 15.3509 0.751888 16.1654 0.751888 16.9799ZM3.1955 11.2782C3.1955 12.0927 3.1955 12.9073 3.1955 13.7218C3.50878 13.7218 3.75941 13.7218 4.07269 13.7218C4.07269 12.9073 4.07269 12.0927 4.07269 11.2782C3.75941 11.2782 3.50878 11.2782 3.1955 11.2782Z" fill="#5AA058"/>
<path d="M14.3484 0C14.787 0.18797 14.9123 0.56391 14.9123 1.00251C14.9123 2.00501 14.9123 3.00752 14.9123 4.07268C14.9123 4.198 14.975 4.32331 15.0376 4.44862C15.6015 5.13784 16.1654 5.82707 16.792 6.51629C16.8547 6.6416 16.9173 6.76692 16.98 6.95489C16.98 7.33083 16.98 7.64411 16.98 8.02005C16.98 8.58396 16.6667 8.89724 16.1028 8.89724C13.7218 8.89724 11.4035 8.89724 9.02258 8.89724C8.45867 8.89724 8.14539 8.58396 8.14539 8.02005C8.14539 6.76692 8.14539 6.76692 8.95992 5.82707C9.33586 5.38847 9.7118 4.94987 10.0877 4.51128C10.1504 4.38596 10.2131 4.26065 10.2131 4.13534C10.2131 3.13283 10.2131 2.13033 10.2131 1.06516C10.2131 0.626566 10.3384 0.250627 10.777 0.0626566C11.9048 0 13.1579 0 14.3484 0ZM10.9023 0.75188C10.9023 1.8797 10.9023 2.94486 10.9023 4.01003C12.0301 4.01003 13.0953 4.01003 14.1604 4.01003C14.1604 2.88221 14.1604 1.81704 14.1604 0.75188C13.0326 0.75188 11.9674 0.75188 10.9023 0.75188ZM15.7268 6.45363C15.2882 5.88972 14.8496 5.38847 14.411 4.88722C14.3484 4.82456 14.2857 4.82456 14.1604 4.82456C13.0326 4.82456 11.9048 4.82456 10.8396 4.82456C10.7143 4.82456 10.589 4.88722 10.5263 4.94987C10.2131 5.26316 9.96243 5.6391 9.64914 6.01504C9.52383 6.14035 9.39852 6.32832 9.27321 6.45363C11.4662 6.45363 13.5965 6.45363 15.7268 6.45363ZM16.1654 7.26817C13.7218 7.26817 11.2782 7.26817 8.83461 7.26817C8.83461 7.58145 8.83461 7.83208 8.83461 8.08271C11.2782 8.08271 13.7218 8.08271 16.1654 8.08271C16.1654 7.76942 16.1654 7.5188 16.1654 7.26817Z" fill="#5AA058"/>
<path d="M6.6416 0C7.0802 0.18797 7.20551 0.501253 7.20551 0.939849C7.20551 2.44361 7.20551 3.94737 7.20551 5.45113C7.20551 5.95238 6.89223 6.39098 6.26566 6.39098C4.51128 6.39098 2.75689 6.39098 0.93985 6.39098C0.56391 6.39098 0.18797 6.26566 0 5.88972C0 4.13534 0 2.3183 0 0.56391C0 0.438596 0 0.125313 0.0626566 0.0626566C0.125313 0 0.37594 0 0.56391 0C2.56892 0 4.63659 0 6.6416 0ZM6.45363 0.75188C4.51128 0.75188 2.63158 0.75188 0.75188 0.75188C0.75188 2.38095 0.75188 4.01002 0.75188 5.6391C2.63158 5.6391 4.57394 5.6391 6.45363 5.6391C6.45363 4.01002 6.45363 2.38095 6.45363 0.75188Z" fill="#5AA058"/>
<path d="M24.4988 0C24.9373 0.18797 25.0627 0.501253 25.0627 1.00251C25.0627 2.50627 25.0627 4.07268 25.0627 5.57644C25.0627 6.14035 24.7494 6.39098 24.2481 6.39098C22.4311 6.39098 20.5514 6.39098 18.7343 6.39098C18.1704 6.39098 17.8571 6.07769 17.8571 5.57644C17.8571 4.82456 17.8571 4.01002 17.8571 3.25814C17.8571 3.19549 17.8571 3.07018 17.9198 3.00752C17.9825 2.88221 18.1704 2.75689 18.2331 2.81955C18.3584 2.81955 18.4837 2.94486 18.5464 3.07018C18.609 3.13283 18.609 3.25815 18.609 3.38346C18.609 4.07268 18.609 4.7619 18.609 5.51378C18.609 5.57644 18.609 5.70175 18.609 5.76441C20.5514 5.76441 22.4311 5.76441 24.3108 5.76441C24.3108 4.13534 24.3108 2.50627 24.3108 0.877193C22.4311 0.877193 20.5514 0.877193 18.609 0.877193C18.609 1.12782 18.609 1.4411 18.609 1.69173C18.609 1.81704 18.5464 2.00501 18.4211 2.06767C18.2331 2.25564 17.8571 2.06767 17.8571 1.81704C17.8571 1.50376 17.8571 1.12782 17.8571 0.814536C17.8571 0.501253 18.1078 0.313283 18.3584 0.125313C20.3634 0 22.4311 0 24.4988 0Z" fill="#5AA058"/>
<path d="M23.4336 9.64912C23.4336 9.9624 23.4336 10.213 23.4336 10.4637C23.4336 10.5263 23.5589 10.589 23.6216 10.6516C24.0602 10.9023 24.3108 11.4035 24.2481 11.9048C24.1855 12.406 23.8095 12.782 23.3083 12.8446C22.7444 12.9699 22.1805 12.6566 21.9925 12.0927C21.8045 11.5288 21.9925 10.9649 22.4937 10.6516C22.6817 10.5263 22.7444 10.4637 22.7444 10.2757C22.7444 10.0877 22.7444 9.89975 22.7444 9.64912C21.9298 9.64912 21.1153 9.64912 20.2381 9.64912C20.2381 9.89975 20.2381 10.213 20.2381 10.4637C20.2381 10.5263 20.3634 10.589 20.4261 10.6516C20.8647 10.9023 21.0526 11.2782 21.0526 11.7794C20.99 12.2807 20.7393 12.594 20.3634 12.782C19.7995 13.0326 19.1103 12.782 18.8596 12.218C18.609 11.6541 18.797 11.0276 19.2982 10.7143C19.4862 10.589 19.5489 10.5263 19.5489 10.2757C19.5489 10.0877 19.5489 9.89975 19.5489 9.64912C19.2356 9.64912 18.9223 9.64912 18.609 9.64912C18.5464 9.64912 18.4837 9.64912 18.3584 9.64912C18.1078 9.64912 17.9198 9.46115 17.9198 9.27318C17.9198 9.02255 18.1078 8.89724 18.3584 8.89724C19.9248 8.89724 21.4912 8.89724 22.995 8.89724C23.5589 8.89724 24.0602 8.89724 24.6241 8.89724C24.9373 8.89724 25.0627 9.02255 25.0627 9.27318C25.0627 9.52381 24.9373 9.64912 24.6241 9.64912C24.1855 9.64912 23.8095 9.64912 23.4336 9.64912ZM19.7995 12.1554C20.0501 12.1554 20.2381 11.9674 20.2381 11.7168C20.2381 11.4662 20.0501 11.2782 19.7995 11.2782C19.5489 11.2782 19.3609 11.4662 19.3609 11.7168C19.3609 11.9048 19.5489 12.1554 19.7995 12.1554ZM22.995 12.1554C23.2456 12.1554 23.4336 11.9674 23.4336 11.7794C23.4336 11.5288 23.2456 11.3408 22.995 11.3408C22.7444 11.3408 22.5564 11.5288 22.5564 11.7794C22.619 11.9048 22.7444 12.0927 22.995 12.1554Z" fill="#5AA058"/>
<path d="M2.38097 20.99C2.38097 21.2406 2.38097 21.5539 2.38097 21.8045C2.38097 22.0551 2.25566 22.1805 2.00503 22.1805C1.81706 22.1805 1.62909 22.0551 1.62909 21.8045C1.62909 21.3033 1.62909 20.7393 1.62909 20.2381C1.62909 19.9875 1.7544 19.8622 2.00503 19.8622C2.25566 19.8622 2.38097 19.9875 2.38097 20.2381C2.38097 20.4887 2.38097 20.7393 2.38097 20.99Z" fill="#5AA058"/>
<path d="M21.4286 4.07268C21.5539 4.07268 21.6792 4.07268 21.8672 4.07268C22.0551 4.07268 22.2431 4.19799 22.2431 4.44862C22.2431 4.63659 22.1178 4.82456 21.9298 4.82456C21.6165 4.82456 21.3659 4.82456 21.0526 4.82456C20.8647 4.82456 20.6767 4.63659 20.7393 4.44862C20.7393 4.26065 20.8647 4.13533 21.1153 4.07268C21.1153 4.07268 21.3033 4.07268 21.4286 4.07268Z" fill="#5AA058"/>
<path d="M19.3609 21.0526C19.3609 21.3033 19.3609 21.5539 19.3609 21.8045C19.3609 22.0551 19.2356 22.1805 18.985 22.1805C18.797 22.1805 18.609 22.0551 18.609 21.8045C18.609 21.3033 18.609 20.7393 18.609 20.2381C18.609 19.9875 18.7344 19.8622 18.985 19.8622C19.1729 19.8622 19.3609 19.9875 19.3609 20.2381C19.3609 20.4887 19.3609 20.7393 19.3609 21.0526Z" fill="#5AA058"/>
<path d="M12.4687 23.4336C11.5288 23.4336 10.6516 23.4336 9.71179 23.4336C9.14788 23.4336 8.83459 23.1203 8.83459 22.619C8.83459 21.6165 8.83459 20.5514 8.83459 19.5489C8.83459 18.985 9.14788 18.7343 9.71179 18.7343C11.5288 18.7343 13.4085 18.7343 15.2256 18.7343C15.7895 18.7343 16.1028 19.0476 16.1028 19.5489C16.1028 20.5514 16.1028 21.6165 16.1028 22.619C16.1028 23.183 15.7895 23.4336 15.2256 23.4336C14.3484 23.4336 13.4085 23.4336 12.4687 23.4336ZM15.3509 19.3609C13.4085 19.3609 11.5288 19.3609 9.64913 19.3609C9.64913 20.4887 9.64913 21.5539 9.64913 22.619C11.5288 22.619 13.4712 22.619 15.3509 22.619C15.3509 21.5539 15.3509 20.4887 15.3509 19.3609Z" fill="#5AA058"/>
<path d="M9.46116 16.1028C9.08522 16.1028 8.89725 15.9774 8.89725 15.7268C8.89725 15.4762 9.08522 15.3509 9.46116 15.3509C9.52381 15.3509 9.58647 15.3509 9.64913 15.3509C9.89975 15.3509 10.0251 15.5388 10.0251 15.7268C10.0251 15.9148 9.8371 16.1028 9.58647 16.1028C9.58647 16.1028 9.52381 16.1028 9.46116 16.1028Z" fill="#5AA058"/>
<path d="M15.5389 16.1028C15.4762 16.1028 15.4135 16.1028 15.4135 16.1028C15.1629 16.1028 14.9749 15.9148 14.9749 15.7268C14.9749 15.5388 15.1629 15.3509 15.3509 15.3509C15.4762 15.3509 15.6015 15.3509 15.7268 15.3509C15.9148 15.3509 16.1028 15.5388 16.1028 15.7268C16.1028 15.9148 15.9775 16.1028 15.7268 16.1028C15.6642 16.1028 15.6015 16.1028 15.5389 16.1028Z" fill="#5AA058"/>
<path d="M12.5313 16.1028C12.1554 16.1028 11.9674 15.9774 11.9674 15.7268C11.9674 15.4762 12.1554 15.3509 12.5313 15.3509C12.594 15.3509 12.6567 15.3509 12.6567 15.3509C12.9073 15.3509 13.0953 15.5388 13.0953 15.7268C13.0953 15.9774 12.9073 16.1028 12.6567 16.1028C12.594 16.1028 12.5313 16.1028 12.5313 16.1028Z" fill="#5AA058"/>
<path d="M20.99 16.1028C20.8647 16.1028 20.7394 16.1028 20.5514 16.1028C20.3634 16.1028 20.1754 15.9148 20.1754 15.7268C20.1754 15.5388 20.3008 15.3509 20.5514 15.3509C20.8647 15.3509 21.1153 15.3509 21.4286 15.3509C21.6165 15.3509 21.8045 15.5388 21.8045 15.7268C21.8045 15.9148 21.6792 16.1028 21.4286 16.1028C21.3033 16.1028 21.1153 16.1028 20.99 16.1028Z" fill="#5AA058"/>
<path d="M4.01003 16.1028C3.88472 16.1028 3.75941 16.1028 3.57144 16.1028C3.32081 16.1028 3.1955 15.9148 3.1955 15.7268C3.1955 15.5388 3.32081 15.3509 3.57144 15.3509C3.88472 15.3509 4.13535 15.3509 4.44863 15.3509C4.6366 15.3509 4.82457 15.5388 4.82457 15.7268C4.82457 15.9148 4.69925 16.1028 4.44863 16.1028C4.32332 16.1028 4.13535 16.1028 4.01003 16.1028Z" fill="#5AA058"/>
<path d="M3.63409 4.07268C3.7594 4.07268 3.94737 4.07268 4.07268 4.07268C4.26065 4.07268 4.38597 4.19799 4.38597 4.38596C4.38597 4.57393 4.26065 4.7619 4.07268 4.7619C3.7594 4.7619 3.44612 4.7619 3.13283 4.7619C2.94486 4.7619 2.81955 4.57393 2.81955 4.38596C2.81955 4.19799 2.94486 4.07268 3.19549 4.07268C3.3208 4.07268 3.44612 4.07268 3.63409 4.07268Z" fill="#5AA058"/>
<path d="M12.5313 20.2381C13.0326 20.2381 13.5339 20.2381 14.0978 20.2381C14.3484 20.2381 14.5364 20.3634 14.5364 20.614C14.5364 20.8647 14.3484 20.99 14.0978 20.99C13.0953 20.99 12.0301 20.99 11.0276 20.99C10.777 20.99 10.589 20.8647 10.589 20.614C10.589 20.3634 10.777 20.2381 11.0276 20.2381C11.4662 20.2381 12.0301 20.2381 12.5313 20.2381Z" fill="#5AA058"/>
</svg>
