<svg width="39" height="21" viewBox="0 0 39 21" fill="none" xmlns="http://www.w3.org/2000/svg">
<g clip-path="url(#clip0_189_189)">
<path d="M0 1.34862C0.288991 0.77064 0.577982 0.192658 1.34862 0.0963281C3.27523 -0.288993 4.72018 0.77064 4.81651 2.40825C5.00917 4.33486 5.20184 6.3578 5.29817 8.2844C5.3945 9.34404 5.77982 9.72936 6.83945 9.72936C8.38073 9.72936 9.92202 9.72936 11.4633 9.72936C12.9083 9.72936 14.0642 10.9817 14.0642 12.3303C14.0642 12.9083 14.0642 13.3899 13.6789 13.7752C13.3899 14.1606 13.0046 14.4495 12.5229 14.4495C12.1376 14.4495 11.7523 14.4495 11.367 14.4495C11.656 15.4128 11.945 16.3761 12.2339 17.3394C12.5229 18.3028 12.8119 19.2661 13.1009 20.2294C13.1972 20.711 13.1009 21 12.8119 21.0963C12.5229 21.1927 12.2339 21 12.0413 20.6147C11.8486 20.0367 11.656 19.4587 11.5596 18.8807C11.4633 18.6881 11.4633 18.5917 11.1743 18.5917C8.76606 18.5917 6.3578 18.5917 4.04587 18.5917C3.85321 18.5917 3.75688 18.6881 3.66055 18.8807C3.46789 19.4587 3.27523 20.133 3.08257 20.711C2.98624 21 2.79358 21.1927 2.40826 21.0963C2.11927 21 1.92661 20.8073 1.92661 20.5183C1.92661 20.422 1.92661 20.2294 2.02294 20.0367C2.60092 18.1101 3.1789 16.1835 3.75688 14.3532C3.37156 14.1606 3.08257 14.0642 2.69725 13.8716C1.54128 13.1009 0.866973 11.945 0.770642 10.5963C0.577982 8.38073 0.385321 6.16514 0.192661 3.94954C0.0963303 3.46789 0.0963303 2.88991 0 2.40825C0 2.02293 0 1.73394 0 1.34862ZM8.47707 13.2936C9.72936 13.2936 10.9817 13.2936 12.2339 13.2936C12.7156 13.2936 12.9083 13.1009 12.9083 12.6193C12.9083 11.5596 12.2339 10.789 11.1743 10.789C9.63303 10.789 8.09174 10.789 6.55046 10.789C5.20184 10.789 4.33486 9.92202 4.1422 8.66972C4.04587 6.64679 3.85321 4.72018 3.66055 2.69725C3.56422 1.73394 2.88991 1.05963 1.63761 1.15596C1.25229 1.15596 1.05963 1.44495 1.05963 1.83027C1.15596 2.69725 1.25229 3.56422 1.25229 4.52752C1.44495 6.45413 1.63761 8.38073 1.73395 10.3073C1.83028 12.1376 3.08257 13.3899 4.91284 13.3899C6.16514 13.2936 7.3211 13.2936 8.47707 13.2936ZM4.04587 17.3394C6.3578 17.3394 8.66973 17.3394 11.078 17.3394C10.789 16.3761 10.5 15.5092 10.211 14.6422C10.211 14.5459 10.0183 14.4495 9.92202 14.4495C8.2844 14.4495 6.74312 14.4495 5.1055 14.4495C5.00917 14.4495 4.91284 14.5459 4.81651 14.6422C4.62385 15.5092 4.33486 16.3761 4.04587 17.3394Z" fill="#00477F"/>
<path d="M17.2431 17.6284C17.2431 14.2569 17.2431 10.8853 17.2431 7.41743C17.0505 7.41743 16.9541 7.41743 16.7615 7.41743C14.7385 7.41743 12.7156 7.41743 10.5963 7.41743C10.4037 7.41743 10.211 7.41743 10.1147 7.41743C9.34405 7.22477 8.8624 6.55046 9.05506 5.77982C9.34405 4.72018 10.3074 3.85321 11.367 3.85321C11.7523 3.85321 12.1376 3.85321 12.5229 3.85321C12.9083 3.85321 13.1009 4.04587 13.1009 4.43119C13.1009 4.72018 12.9083 5.00917 12.5229 5.00917C12.1376 5.00917 11.656 5.00917 11.2707 5.1055C10.789 5.20183 10.4037 5.49082 10.211 5.97248C10.1147 6.26147 10.1147 6.3578 10.5 6.3578C10.5963 6.3578 10.5963 6.3578 10.6927 6.3578C16.3762 6.3578 22.156 6.3578 27.8395 6.3578C28.4174 6.3578 28.5138 6.26147 28.2248 5.68349C27.9358 5.1055 27.3578 5.00917 26.7798 5.00917C24.1789 5.00917 21.578 5.00917 18.9771 5.00917C17.8211 5.00917 16.7615 5.00917 15.6055 5.00917C15.5092 5.00917 15.4129 5.00917 15.2202 5.00917C14.9312 5.00917 14.7385 4.81651 14.6422 4.52752C14.6422 4.23853 14.8349 3.94954 15.1239 3.94954C15.2202 3.94954 15.3165 3.94954 15.4129 3.94954C19.1697 3.94954 23.0229 3.94954 26.7798 3.94954C28.0321 3.94954 29.0918 4.72018 29.3807 5.87615C29.5734 6.74312 29.0918 7.41743 28.2248 7.61009C28.0321 7.61009 27.8395 7.61009 27.7431 7.61009C25.7202 7.61009 23.6973 7.61009 21.6743 7.61009C21.4817 7.61009 21.3853 7.61009 21.1927 7.61009C21.1927 11.078 21.1927 14.4495 21.1927 17.8211C21.4817 17.8211 21.7707 17.9174 22.0596 17.9174C23.3119 18.2064 23.6973 19.555 23.6009 20.3257C23.6009 20.8073 23.1193 21.1927 22.5413 21.1927C20.3257 21.1927 18.0138 21.1927 15.7982 21.1927C15.1239 21.1927 14.6422 20.711 14.7385 20.0367C14.8349 18.9771 15.3165 18.1101 16.4725 17.8211C16.7615 17.6284 16.9541 17.6284 17.2431 17.6284ZM18.3991 7.41743C18.3991 10.789 18.3991 14.2569 18.3991 17.6284C18.9771 17.6284 19.4587 17.6284 20.0367 17.6284C20.0367 14.2569 20.0367 10.789 20.0367 7.41743C19.4587 7.41743 18.9771 7.41743 18.3991 7.41743ZM15.9908 19.844C18.2064 19.844 20.3257 19.844 22.445 19.844C22.3486 19.0734 22.0596 18.7844 21.289 18.7844C19.844 18.7844 18.4954 18.7844 17.0505 18.7844C16.3762 18.7844 16.0872 19.0734 15.9908 19.844Z" fill="#00477F"/>
<path d="M27.0688 14.4495C26.6835 14.4495 26.2982 14.4495 25.9129 14.4495C25.0459 14.3532 24.3716 13.6789 24.3716 12.8119C24.3716 11.1743 25.1422 10.1147 26.5872 9.72936C26.8762 9.63303 27.1652 9.63303 27.4542 9.63303C28.8991 9.63303 30.3441 9.63303 31.6927 9.63303C32.5597 9.63303 32.945 9.34404 33.0413 8.47707C33.234 6.93578 33.3303 5.3945 33.4266 3.85321C33.523 3.27523 33.523 2.69725 33.6193 2.2156C33.812 1.05963 34.7753 0.0963303 36.0275 0C36.4129 0 36.7982 0 37.1835 0.0963303C37.9542 0.288991 38.4358 0.963303 38.4358 1.73395C38.3395 2.79358 38.2431 3.85321 38.1468 4.91284C38.0505 6.45413 37.8578 8.09174 37.7615 9.63303C37.6652 10.211 37.6652 10.789 37.5688 11.367C37.4725 11.7523 37.1835 11.945 36.8945 11.945C36.6055 11.8486 36.4129 11.5596 36.4129 11.1743C36.7019 8.47707 36.8945 5.77982 37.1835 3.08257C37.1835 2.69725 37.2798 2.31193 37.2798 1.92661C37.3762 1.44495 37.0872 1.15596 36.6055 1.15596C35.4496 1.05963 34.8716 1.63761 34.7753 2.79358C34.5826 4.72018 34.3899 6.74312 34.2936 8.66973C34.1973 10.0183 33.234 10.8853 31.9817 10.8853C30.4404 10.8853 28.8991 10.8853 27.3578 10.8853C26.2982 10.8853 25.6239 11.656 25.6239 12.6193C25.6239 13.1009 25.8165 13.2936 26.2982 13.2936C28.8028 13.2936 31.211 13.2936 33.7156 13.2936C34.1973 13.2936 34.6789 13.1009 35.0642 12.9083C35.4496 12.8119 35.8349 12.9083 35.9312 13.2936C36.0275 13.5826 35.9312 13.7752 35.6422 13.9679C35.3532 14.1606 35.0642 14.2569 34.7753 14.3532C35.2569 15.9908 35.7386 17.5321 36.2202 19.1697C36.3165 19.555 36.5092 19.9404 36.6055 20.3257C36.7019 20.6147 36.5092 20.9037 36.2202 21.0963C35.9312 21.1927 35.6422 21.0963 35.5459 20.711C35.3532 20.133 35.1606 19.555 34.9679 18.8807C34.8716 18.5917 34.7753 18.4954 34.4863 18.4954C32.1743 18.4954 29.7661 18.4954 27.4542 18.4954C27.1652 18.4954 27.0688 18.5917 26.9725 18.7844C26.7798 19.3624 26.6835 19.844 26.4908 20.422C26.2982 20.9037 26.1055 21.0963 25.7202 21C25.3349 20.9037 25.2386 20.6147 25.3349 20.0367C25.9129 18.3028 26.3945 16.5688 26.9725 14.7385C27.0688 14.7385 27.0688 14.6422 27.0688 14.4495ZM27.4542 17.3395C29.7661 17.3395 32.078 17.3395 34.4863 17.3395C34.1973 16.3761 33.9083 15.5092 33.6193 14.6422C33.6193 14.5459 33.4266 14.4495 33.3303 14.4495C31.789 14.4495 30.1514 14.4495 28.6101 14.4495C28.5138 14.4495 28.3211 14.5459 28.3211 14.6422C28.0321 15.5092 27.7431 16.3761 27.4542 17.3395Z" fill="#00477F"/>
</g>
<defs>
<clipPath id="clip0_189_189">
<rect width="38.4358" height="21" fill="white"/>
</clipPath>
</defs>
</svg>
