<svg width="25" height="25" viewBox="0 0 25 25" fill="none" xmlns="http://www.w3.org/2000/svg">
<g clip-path="url(#clip0_189_194)">
<path d="M16.9828 23.4483C16.9828 23.8793 16.9828 24.2241 16.9828 24.569C16.9828 24.9138 16.8103 25 16.5517 25C16.2069 25 15.8621 25 15.431 25C15.1724 25 15.0862 24.9138 15 24.7414C14.8276 24.3103 14.569 23.9655 14.3965 23.5345C14.3103 23.4483 14.3103 23.3621 14.1379 23.3621C11.7241 23.3621 9.31034 23.3621 6.98275 23.3621C6.81034 23.3621 6.72413 23.4483 6.72413 23.5345C6.55172 23.8793 6.3793 24.3103 6.20689 24.6552C5.94827 24.9138 5.77586 25 5.60344 25C5.25862 25 4.91379 25 4.48275 25C4.22413 25 4.05172 24.8276 4.05172 24.569C4.05172 24.2241 4.05172 23.7931 4.05172 23.4483C3.53448 23.4483 3.01724 23.1897 2.75861 22.7586C2.5862 22.5 2.49999 22.1552 2.49999 21.8103C2.49999 21.2931 2.49999 20.8621 2.49999 20.3448C2.49999 20.1724 2.49999 20.1724 2.32758 20.0862C0.862063 19.8276 -0.0862131 18.6207 -6.18445e-06 17.1552C0.0862007 15.8621 1.12068 14.7414 2.49999 14.569C4.13793 14.3103 5.68965 15.6897 5.68965 17.3276C5.68965 17.8448 5.68965 18.2759 5.68965 18.7931C8.8793 18.0172 12.1552 18.0172 15.3448 18.7931C15.3448 18.6207 15.3448 18.4483 15.3448 18.2759C15.3448 17.7586 15.3448 17.2414 15.431 16.7241C15.7759 15.3448 16.9828 14.4828 18.3621 14.569C19.6552 14.6552 20.7759 15.7759 20.9483 17.069C21.1207 18.5345 20.1724 19.8276 18.7069 20.1724C18.5345 20.1724 18.5345 20.2586 18.5345 20.431C18.5345 20.8621 18.5345 21.3793 18.5345 21.8103C18.5345 22.6724 17.931 23.3621 16.9828 23.4483ZM3.7931 19.3966C4.13793 19.3103 4.39655 19.1379 4.65517 19.0517C4.74137 19.0517 4.82758 18.8793 4.82758 18.8793C4.82758 18.3621 4.82758 17.8448 4.82758 17.3276C4.74137 16.0345 3.53448 15.0862 2.32758 15.431C1.3793 15.6897 0.775856 16.6379 0.862063 17.5C0.94827 18.5345 1.72413 19.3103 2.75861 19.3966C3.10344 19.3966 3.27586 19.569 3.27586 19.9138C3.27586 20.5172 3.27586 21.1207 3.27586 21.7241C3.27586 22.2414 3.62068 22.5862 4.13793 22.5862C8.36206 22.5862 12.5862 22.5862 16.8965 22.5862C17.4138 22.5862 17.7586 22.2414 17.7586 21.7241C17.7586 21.2069 17.7586 20.6897 17.7586 20.1724C17.7586 19.4828 17.7586 19.4828 18.4483 19.3966H18.5345C19.569 19.2241 20.2586 18.3621 20.2586 17.3276C20.1724 16.2931 19.3965 15.431 18.2759 15.3448C17.3276 15.2586 16.3793 16.0345 16.2069 17.069C16.1207 17.6724 16.1207 18.2759 16.1207 18.8793C16.1207 18.9655 16.2069 19.0517 16.2931 19.0517C16.5517 19.1379 16.8965 19.3103 17.1552 19.3966C16.9828 19.6552 16.8965 19.9138 16.8103 20.0862C12.5862 18.6207 8.44827 18.6207 4.22413 20.0862C4.05172 19.9138 3.96551 19.6552 3.7931 19.3966ZM4.82758 23.4483C4.82758 23.7069 4.82758 23.9655 4.82758 24.2241C4.91379 24.2241 4.99999 24.2241 5.0862 24.2241C5.17241 24.2241 5.34482 24.2241 5.34482 24.1379C5.51724 23.8793 5.60344 23.7069 5.68965 23.4483C5.43103 23.4483 5.17241 23.4483 4.82758 23.4483ZM16.1207 24.2241C16.1207 23.9655 16.1207 23.7069 16.1207 23.4483C15.7759 23.4483 15.5172 23.4483 15.2586 23.4483C15.5172 24.2241 15.5172 24.2241 16.1207 24.2241Z" fill="#00477F"/>
<path d="M16.5517 0.775862C15.6034 0.775862 14.6552 0.775862 13.7069 0.775862C13.0172 0.775862 12.2414 0.775862 11.5517 0.775862C10.8621 0.775862 10.5172 1.03448 10.5172 1.81034C10.5172 1.89655 10.5172 1.89655 10.5172 1.98276C10.2586 1.98276 10 1.98276 9.74138 1.98276C9.48276 0.948276 10.2586 0 11.2931 0C15.0862 0 18.7931 0 22.5862 0C23.5345 0 24.2241 0.689655 24.2241 1.63793C24.2241 8.27586 24.2241 14.9138 24.2241 21.6379C24.2241 22.5 23.7069 23.3621 22.5862 23.4483C22.5862 23.7931 22.5862 24.2241 22.5862 24.569C22.5862 24.9138 22.4138 25.0862 22.069 25.0862C21.7241 25.0862 21.3793 25.0862 20.9483 25.0862C20.7759 25.0862 20.6034 25 20.5172 24.8276C20.3448 24.3966 20.0862 24.0517 19.9138 23.6207C19.9138 23.5345 19.7414 23.4483 19.6552 23.4483C19.3966 23.4483 19.1379 23.4483 18.8793 23.4483C18.8793 23.1897 18.8793 22.931 18.8793 22.6724C18.9655 22.6724 19.0517 22.6724 19.1379 22.6724C20.1724 22.6724 21.2931 22.6724 22.3276 22.6724C22.931 22.6724 23.2759 22.3276 23.2759 21.7241C23.2759 15.0862 23.2759 8.44828 23.2759 1.81034C23.2759 1.2069 22.931 0.862069 22.3276 0.862069C20.6897 0.862069 19.0517 0.862069 17.5 0.862069C17.4138 0.862069 17.3276 0.862069 17.2414 0.862069C17.2414 3.7069 17.2414 6.46552 17.2414 9.31034C16.9828 9.31034 16.7241 9.31034 16.4655 9.31034C16.5517 6.46552 16.5517 3.62069 16.5517 0.775862ZM20.8621 23.4483C21.1207 24.2241 21.2069 24.3103 21.8103 24.2241C21.8103 23.9655 21.8103 23.7069 21.8103 23.4483C21.4655 23.4483 21.2069 23.4483 20.8621 23.4483Z" fill="#00477F"/>
<path d="M6.46551 8.44827C5.51724 8.44827 4.56896 8.44827 3.70689 8.44827C3.44827 8.44827 3.18965 8.44827 2.93103 8.44827C2.5862 8.44827 2.41379 8.36207 2.41379 8.01724C2.49999 7.32758 2.49999 6.63793 2.5862 6.03448C2.67241 5.0862 2.75862 4.22413 2.84482 3.27586C2.84482 2.93103 3.01724 2.84482 3.36206 2.84482C4.31034 2.84482 5.25862 2.84482 6.20689 2.84482C6.2931 2.84482 6.3793 2.84482 6.46551 2.84482C6.46551 2.5862 6.46551 2.32758 6.46551 2.06896C6.72413 2.06896 6.98275 2.06896 7.24137 2.06896C7.24137 2.32758 7.24137 2.5862 7.24137 2.84482C7.32758 2.84482 7.41379 2.84482 7.49999 2.84482C8.44827 2.84482 9.39655 2.84482 10.3448 2.84482C10.6896 2.84482 10.8621 2.93103 10.8621 3.27586C11.0345 4.65517 11.1207 6.03448 11.2069 7.41379C11.2069 7.5862 11.2069 7.75862 11.2931 7.93103C11.2931 8.27586 11.1207 8.36207 10.8621 8.36207C9.74137 8.36207 8.70689 8.36207 7.5862 8.36207C7.49999 8.36207 7.41379 8.36207 7.24137 8.36207C7.24137 8.62069 7.24137 8.87931 7.24137 9.13793C6.98275 9.13793 6.72413 9.13793 6.46551 9.13793C6.46551 9.05172 6.46551 8.7931 6.46551 8.44827ZM10.0862 3.62069C7.93103 3.62069 5.77586 3.62069 3.53448 3.62069C3.44827 5 3.36206 6.2931 3.27586 7.67241C5.68965 7.67241 8.01724 7.67241 10.431 7.67241C10.3448 6.2931 10.2586 5 10.0862 3.62069Z" fill="#00477F"/>
<path d="M3.18965 13.7069C2.93103 13.7069 2.67241 13.7069 2.41379 13.7069C2.41379 13.6207 2.41379 13.5345 2.41379 13.5345C2.41379 12.931 2.41379 12.3276 2.41379 11.7241C2.41379 10.8621 3.10344 10.1724 3.96551 10.1724C8.27586 10.1724 12.5862 10.1724 16.8965 10.1724C17.7586 10.1724 18.4483 10.8621 18.4483 11.7241C18.4483 12.4138 18.4483 13.0172 18.4483 13.7069C18.4483 13.7069 18.4483 13.7069 18.4483 13.7931C18.1896 13.7931 17.931 13.7931 17.6724 13.7931C17.6724 13.1897 17.6724 12.5862 17.6724 11.9828C17.6724 11.2931 17.4138 10.9483 16.6379 10.9483C12.5 10.9483 8.27586 10.9483 4.13793 10.9483C3.44827 10.9483 3.10344 11.2931 3.10344 11.9828C3.18965 12.5 3.18965 13.0172 3.18965 13.7069C3.18965 13.6207 3.18965 13.6207 3.18965 13.7069Z" fill="#00477F"/>
<path d="M8.10344 12.5C8.36206 12.5 8.62068 12.5 8.8793 12.5C8.8793 12.7586 8.8793 13.0172 8.8793 13.2759C8.62068 13.2759 8.36206 13.2759 8.10344 13.2759C8.10344 13.0172 8.10344 12.7586 8.10344 12.5Z" fill="#00477F"/>
<path d="M12.8448 13.2759C12.5862 13.2759 12.3276 13.2759 12.069 13.2759C12.069 13.0172 12.069 12.7586 12.069 12.5C12.3276 12.5 12.5862 12.5 12.8448 12.5C12.8448 12.7586 12.8448 13.0172 12.8448 13.2759Z" fill="#00477F"/>
<path d="M6.03447 14.569C6.29309 14.569 6.55171 14.569 6.81033 14.569C6.81033 14.8276 6.81033 15.0862 6.81033 15.3448C6.55171 15.3448 6.29309 15.3448 6.03447 15.3448C6.03447 15.0862 6.03447 14.8276 6.03447 14.569Z" fill="#00477F"/>
<path d="M10.8621 15.3448C10.6034 15.3448 10.3448 15.3448 10.0862 15.3448C10.0862 15.0862 10.0862 14.8276 10.0862 14.569C10.3448 14.569 10.6034 14.569 10.8621 14.569C10.8621 14.8276 10.8621 15.0862 10.8621 15.3448Z" fill="#00477F"/>
<path d="M14.1379 14.569C14.3965 14.569 14.6552 14.569 14.9138 14.569C14.9138 14.8276 14.9138 15.0862 14.9138 15.3448C14.6552 15.3448 14.3965 15.3448 14.1379 15.3448C14.1379 15.0862 14.1379 14.8276 14.1379 14.569Z" fill="#00477F"/>
<path d="M8.10344 17.3276C8.10344 17.069 8.10344 16.8103 8.10344 16.5517C8.36206 16.5517 8.62068 16.5517 8.8793 16.5517C8.8793 16.8103 8.8793 17.069 8.8793 17.3276C8.62068 17.3276 8.36206 17.3276 8.10344 17.3276Z" fill="#00477F"/>
<path d="M12.1552 16.5517C12.4138 16.5517 12.6724 16.5517 12.931 16.5517C12.931 16.8103 12.931 17.069 12.931 17.3276C12.6724 17.3276 12.4138 17.3276 12.1552 17.3276C12.1552 17.069 12.1552 16.8103 12.1552 16.5517Z" fill="#00477F"/>
<path d="M4.05172 17.3276C4.05172 18.0172 3.53448 18.5345 2.84482 18.5345C2.15517 18.5345 1.63792 18.0172 1.63792 17.3276C1.63792 16.6379 2.15517 16.1207 2.84482 16.1207C3.53448 16.1207 4.05172 16.7241 4.05172 17.3276ZM2.84482 17.7586C3.01723 17.7586 3.27586 17.5862 3.27586 17.3276C3.27586 17.1552 3.01723 16.8966 2.84482 16.9828C2.67241 16.9828 2.49999 17.1552 2.49999 17.4138C2.41379 17.5862 2.5862 17.7586 2.84482 17.7586Z" fill="#00477F"/>
<path d="M19.3965 17.3276C19.3965 18.0172 18.8793 18.5345 18.1897 18.5345C17.5 18.5345 16.9828 18.0172 16.9828 17.3276C16.9828 16.6379 17.5 16.1207 18.1897 16.1207C18.7931 16.1207 19.3965 16.6379 19.3965 17.3276ZM18.1897 17.7586C18.3621 17.7586 18.6207 17.5862 18.6207 17.3276C18.6207 17.1552 18.4483 16.8966 18.1897 16.8966C18.0172 16.8966 17.8448 17.069 17.8448 17.3276C17.7586 17.5862 17.931 17.7586 18.1897 17.7586Z" fill="#00477F"/>
</g>
<defs>
<clipPath id="clip0_189_194">
<rect width="24.2241" height="25" fill="white"/>
</clipPath>
</defs>
</svg>
