<svg width="51" height="70" viewBox="0 0 51 70" fill="none" xmlns="http://www.w3.org/2000/svg">
<g clip-path="url(#clip0_189_296)">
<path d="M18.6749 70.0001C18.3475 69.6167 17.9519 69.2607 17.6927 68.8225C16.7924 67.2477 15.9057 65.6593 15.0736 64.0435C14.7871 63.4684 14.487 63.3999 13.9141 63.5779C12.1134 64.1257 10.2991 64.6049 8.4985 65.1253C7.871 65.3033 7.28443 65.3307 6.80698 64.7966C6.34318 64.2626 6.41139 63.7012 6.67057 63.085C9.01686 57.4981 11.3359 51.8976 13.6685 46.3107C13.764 46.0779 13.8595 45.8589 13.9823 45.5576C12.8228 45.4481 11.7451 45.3933 10.6675 45.2153C7.76187 44.7497 5.97487 42.6272 5.74297 39.4778C5.63384 37.9578 5.55199 36.4242 5.29281 34.9316C5.17003 34.2059 4.7608 33.4801 4.32428 32.8776C3.39667 31.6179 2.3463 30.4539 1.36413 29.2215C-0.491078 26.8937 -0.450154 24.0866 1.44598 21.7861C2.42815 20.5948 3.39667 19.3898 4.39248 18.1984C4.97906 17.5001 5.30645 16.7059 5.37465 15.7884C5.51107 14.1179 5.70204 12.4336 5.87938 10.763C6.16584 8.22975 8.19839 6.18945 10.7357 5.90189C12.4272 5.71019 14.1323 5.61433 15.7966 5.34047C16.5468 5.21723 17.338 4.92967 17.9519 4.47779C19.2341 3.54665 20.4209 2.47857 21.6486 1.46527C23.9677 -0.465479 26.7368 -0.520252 29.1104 1.36942C30.3381 2.34164 31.5385 3.35494 32.739 4.36825C33.4347 4.95706 34.2122 5.29939 35.1398 5.38155C36.8041 5.51848 38.4819 5.71019 40.1462 5.8882C42.8471 6.18945 44.8933 8.40776 45.0843 11.1327C45.2071 12.7896 45.3298 14.4465 45.6027 16.0897C45.7254 16.8291 46.121 17.5959 46.5712 18.2121C47.5124 19.4993 48.5901 20.6769 49.5723 21.923C51.3729 24.1961 51.3456 26.9895 49.5177 29.2489C48.5628 30.4265 47.6079 31.6179 46.6121 32.7681C45.8755 33.6171 45.5754 34.5893 45.4935 35.6985C45.3571 37.369 45.2343 39.0533 44.9615 40.7102C44.5386 43.2161 42.3833 45.051 39.8461 45.2427C38.9048 45.3111 37.9499 45.4344 36.9268 45.5302C37.5134 46.9269 38.0727 48.2826 38.632 49.6382C40.4872 54.0748 42.3288 58.5251 44.184 62.9618C44.4431 63.5779 44.5932 64.1805 44.1158 64.7556C43.611 65.3581 42.9835 65.2759 42.3151 65.0842C40.4736 64.5502 38.6047 64.0709 36.7631 63.5095C36.2993 63.3725 36.1356 63.5095 35.931 63.8792C35.0716 65.4813 34.2122 67.0834 33.3119 68.6581C33.0391 69.1374 32.6435 69.5482 32.3161 69.9864C32.0023 69.9864 31.675 69.9864 31.3612 69.9864C31.0202 69.5756 30.5837 69.2196 30.379 68.754C29.6151 67.056 28.9331 65.3307 28.2101 63.6053C27.6917 62.3729 27.1324 61.1542 26.6823 59.8945C26.5595 59.5521 26.6277 59.0044 26.8323 58.7168C26.996 58.4841 27.5417 58.3197 27.8281 58.4156C28.1555 58.5251 28.4829 58.8948 28.633 59.2372C29.6561 61.6061 30.6382 64.0024 31.6477 66.3988C31.7022 66.5494 31.7977 66.6863 31.9205 66.8917C32.698 65.4676 33.4347 64.1394 34.1577 62.7974C34.9625 61.3459 35.7128 61.031 37.2815 61.4692C38.7548 61.88 40.228 62.2908 41.7967 62.729C41.6876 62.4277 41.6194 62.2223 41.5376 62.0169C39.4368 56.9915 37.3497 51.9661 35.249 46.9406C34.676 45.5713 34.4168 45.5028 33.1891 46.3792C33.08 46.4614 32.9709 46.5435 32.8754 46.6394C31.5249 47.7485 30.1608 48.844 28.8239 49.9805C28.4965 50.2544 28.1828 50.6241 28.0191 51.0075C25.55 56.8819 23.1083 62.7837 20.6256 68.6581C20.4209 69.1511 19.9844 69.5482 19.657 69.9864C19.316 70.0001 19.0022 70.0001 18.6749 70.0001ZM25.4 48.9672C26.3003 48.9946 27.0779 48.6797 27.7736 48.1182C29.0286 47.0776 30.2972 46.0369 31.5522 44.9825C32.4116 44.2567 33.3801 43.7912 34.4851 43.6542C36.0129 43.4762 37.5543 43.3256 39.0821 43.2161C41.483 43.0517 42.7244 41.97 43.0108 39.6284C43.1472 38.5056 43.27 37.369 43.3109 36.2325C43.3791 34.2333 43.9521 32.4531 45.3571 30.9606C46.2165 30.0568 46.9531 29.0435 47.7443 28.0713C49.163 26.3323 49.1494 24.6891 47.717 22.9637C46.7758 21.8272 45.8482 20.6769 44.8933 19.5404C44.143 18.6503 43.611 17.6507 43.4746 16.5005C43.2836 14.9394 43.1472 13.3784 43.0381 11.8174C42.8881 9.65385 41.8104 8.24344 39.9552 7.98327C38.4819 7.77787 36.9814 7.64094 35.4945 7.55878C33.8712 7.46292 32.4525 6.95627 31.2248 5.87451C30.1062 4.88859 28.9331 3.94375 27.7599 2.99892C26.2457 1.78022 24.5406 1.8213 23.0401 3.05369C21.7987 4.08069 20.5573 5.10768 19.316 6.13468C18.4702 6.83303 17.5426 7.29861 16.4377 7.42184C14.7325 7.59986 12.9865 7.80526 11.254 7.94219C9.46702 8.09282 8.07562 9.44845 7.92556 11.2286C7.78915 12.817 7.6391 14.4054 7.48905 15.9801C7.36627 17.3358 6.88883 18.5271 5.98851 19.5678C5.01998 20.7043 4.07874 21.8819 3.13749 23.0459C1.75973 24.7301 1.75973 26.4007 3.16477 28.0987C4.18787 29.3448 5.2246 30.5909 6.23405 31.8369C6.87519 32.6312 7.28443 33.5349 7.39356 34.5482C7.57089 36.2873 7.77551 38.0263 7.91192 39.779C8.06198 41.5181 9.24876 42.86 10.9676 43.0928C12.2498 43.2571 13.5321 43.4078 14.8144 43.4762C16.7514 43.5721 18.4975 44.065 19.9571 45.4618C20.9529 46.4203 22.0852 47.2419 23.1492 48.1182C23.804 48.666 24.5406 48.9809 25.4 48.9672ZM25.6592 51.1171C23.9677 51.0897 22.6172 50.4872 21.4304 49.4465C20.3664 48.5154 19.2751 47.6253 18.1838 46.7489C17.8018 46.4477 17.3653 46.1875 16.9288 45.9547C16.4513 45.6945 16.1649 45.7767 15.9193 46.3655C13.7504 51.6511 11.5269 56.923 9.33061 62.1949C9.26241 62.3456 9.22148 62.5099 9.13963 62.7563C10.7357 62.3045 12.2226 61.88 13.7231 61.4555C15.1963 61.0447 16.0012 61.3733 16.7514 62.7427C17.5017 64.112 18.252 65.4676 19.0568 66.9465C21.2803 61.6335 23.4493 56.4301 25.6592 51.1171Z" fill="#00477F"/>
<path d="M25.1817 11.4612C24.6633 11.4886 24.145 11.5297 23.613 11.5297C22.9582 11.5434 22.5353 11.1874 22.4808 10.6122C22.4262 9.98235 22.8081 9.55786 23.4629 9.46201C31.2521 8.43501 38.8366 13.4604 40.9646 21.0602C43.5701 30.3442 37.7589 39.7241 28.2919 41.5316C19.6434 43.1748 11.0358 37.1087 9.52158 28.3861C8.25294 21.1561 12.0725 13.926 18.5248 10.8998C18.8795 10.7355 19.3978 10.6807 19.7389 10.8176C20.0117 10.9272 20.2982 11.4338 20.2572 11.7214C20.2027 12.0774 19.8889 12.4745 19.5752 12.6936C18.3884 13.5563 16.997 14.1862 15.9466 15.1858C11.8406 19.0884 10.4219 23.9358 11.9634 29.372C13.5185 34.863 17.2834 38.259 22.89 39.3818C30.8019 40.9702 38.5228 35.2464 39.3959 27.2359C40.2144 19.7457 35.4263 13.1455 28.0873 11.6666C27.1324 11.4749 26.1502 11.4612 25.1817 11.3654C25.1954 11.4064 25.1954 11.4338 25.1817 11.4612Z" fill="#00477F"/>
<path d="M21.9078 26.6608C22.7945 25.7707 23.5857 24.9628 24.3905 24.1686C26.0957 22.457 27.7872 20.759 29.4923 19.0473C30.4336 18.1025 31.5522 17.815 32.7935 18.2258C34.0485 18.6365 34.7579 19.5677 34.9488 20.8685C35.0853 21.8545 34.7851 22.7308 34.1031 23.4292C30.8019 26.7704 27.4871 30.1115 24.145 33.4253C22.89 34.6714 21.0075 34.644 19.7389 33.3979C18.1974 31.8916 16.6696 30.358 15.1691 28.8106C13.9413 27.5372 13.955 25.6338 15.1554 24.3877C16.3831 23.1142 18.3065 23.0595 19.6161 24.2919C20.38 25.0176 21.0893 25.8118 21.9078 26.6608ZM32.9572 21.252C32.8072 20.9507 32.7253 20.6768 32.548 20.4851C32.0842 19.9648 31.4703 20.0333 30.8428 20.6632C28.2101 23.306 25.5773 25.9488 22.9446 28.5779C22.1806 29.3447 21.7168 29.3447 20.9802 28.6189C20.0799 27.7152 19.1932 26.8114 18.2793 25.9214C17.7609 25.4147 17.0788 25.3873 16.6559 25.8529C16.2194 26.3048 16.2467 26.9073 16.7514 27.4276C18.1838 28.8791 19.6297 30.3306 21.0757 31.7821C21.6486 32.3435 22.2352 32.3435 22.7945 31.7821C26.0138 28.5642 29.2195 25.3463 32.4116 22.1146C32.6435 21.8819 32.7662 21.5532 32.9572 21.252Z" fill="#00477F"/>
</g>
<defs>
<clipPath id="clip0_189_296">
<rect width="50.9091" height="70" fill="white"/>
</clipPath>
</defs>
</svg>
