<svg width="70" height="70" viewBox="0 0 70 70" fill="none" xmlns="http://www.w3.org/2000/svg">
<path d="M0.692889 70C0.182339 69.6536 0 69.1977 0 68.5596C0.0182339 60.7737 0.0182339 53.006 0.0182339 45.2201C0.0182339 44.1079 0.346444 43.7797 1.49518 43.7797C4.74082 43.7797 8.00469 43.7797 11.2503 43.7797C12.9461 43.7797 13.0555 43.8891 13.1467 45.6395C13.3108 45.5484 13.4749 45.4937 13.6025 45.4025C15.0977 44.3267 16.1917 43.0138 16.7023 41.154C17.9604 36.559 19.3097 32.0006 20.6408 27.4238C20.9143 26.5121 21.206 26.2933 22.1542 26.3116C24.8893 26.3663 27.3691 28.4996 28.1349 31.3624C28.609 33.1493 28.3355 34.918 28.1167 36.7049C27.9161 38.3095 27.6973 39.8958 27.4785 41.6098C27.7703 41.6098 28.0255 41.6098 28.2808 41.6098C32.6022 41.6098 36.9237 41.6098 41.2451 41.6098C43.415 41.6098 45.0195 42.6856 45.6577 44.5637C46.2777 46.4053 45.676 48.2105 43.962 49.5416C43.9073 49.5781 43.8526 49.6328 43.7614 49.7057C44.4725 50.7633 44.8737 51.8938 44.6549 53.1884C44.4361 54.5012 43.7249 55.4858 42.6674 56.2334C44.2719 58.5674 43.8526 61.1019 41.5916 62.8159C42.3209 63.8734 42.7403 65.0039 42.485 66.3168C42.175 67.9761 41.2269 69.0883 39.6588 69.7083C39.4582 69.7812 39.2576 69.8724 39.0388 69.9636C32.4017 69.9636 25.7463 69.9636 19.1091 69.9636C17.1399 69.3618 15.1706 68.7601 13.092 68.1219C13.1649 68.906 13.092 69.5624 12.4173 69.9636C8.51524 70 4.61318 70 0.692889 70ZM22.683 28.6273C22.6283 28.8096 22.5554 28.9555 22.5189 29.1014C21.516 32.584 20.5314 36.085 19.5103 39.5676C19.1274 40.9169 18.8356 42.3392 18.2157 43.5609C17.1216 45.676 15.4988 47.3535 13.1284 48.0646C13.1284 54.0271 13.1284 59.9349 13.1284 65.8792C15.0794 66.4444 17.0122 66.9914 18.9633 67.5385C19.3827 67.6479 19.802 67.7937 20.2214 67.7937C26.1657 67.812 32.0917 67.812 38.0359 67.7937C39.4217 67.7937 40.4246 66.8456 40.4064 65.6057C40.4064 64.3657 39.3853 63.4358 37.9995 63.4358C36.7049 63.4358 35.4103 63.4358 34.1157 63.4358C33.2404 63.4358 32.7663 63.0529 32.7663 62.36C32.7663 61.6489 33.2222 61.266 34.0974 61.266C35.7567 61.266 37.416 61.266 39.0753 61.266C40.4793 61.266 41.4639 60.3543 41.5004 59.1144C41.5186 57.8562 40.4975 56.9081 39.0753 56.9081C37.7807 56.9081 36.4861 56.9081 35.1915 56.9081C34.3162 56.9081 33.8604 56.5069 33.8786 55.7958C33.8968 55.1212 34.3527 54.7382 35.1732 54.72C36.8507 54.72 38.5465 54.72 40.224 54.72C41.6098 54.72 42.6127 53.7901 42.6127 52.5319C42.6127 51.292 41.6098 50.3621 40.224 50.3439C38.9294 50.3256 37.6348 50.3439 36.3402 50.3439C35.4467 50.3439 34.9909 49.9792 34.9909 49.2681C34.9726 48.5387 35.4467 48.1558 36.3767 48.1558C38.0542 48.1558 39.7499 48.174 41.4275 48.1558C43.0138 48.1376 44.0531 46.77 43.5973 45.3478C43.2873 44.3631 42.4668 43.7979 41.2998 43.7979C36.4131 43.7979 31.5264 43.7979 26.6215 43.7979C25.4181 43.7979 25.0352 43.3603 25.181 42.1568C25.5092 39.4765 25.9469 36.7961 26.1839 34.1157C26.3662 31.8912 25.4728 29.3019 22.683 28.6273ZM10.9039 46.0224C7.98645 46.0224 5.1055 46.0224 2.24277 46.0224C2.24277 53.316 2.24277 60.5549 2.24277 67.7755C5.1602 67.7755 8.00469 67.7755 10.9039 67.7755C10.9039 60.5184 10.9039 53.2978 10.9039 46.0224Z" fill="#00477F"/>
<path d="M69.8906 28.226C69.6171 29.2471 69.3983 30.2865 69.0519 31.2893C66.025 40.1328 59.9349 45.6029 50.8179 47.7181C50.6174 47.7728 50.4168 47.7728 50.2162 47.7728C49.5416 47.7728 49.0857 47.3899 49.0128 46.8064C48.9399 46.2411 49.341 45.767 49.961 45.5847C51.7296 45.0195 53.5895 44.6183 55.2306 43.816C62.1594 40.4063 66.3168 34.8267 67.429 27.1685C69.0883 15.6629 61.4848 5.03248 50.1068 2.735C38.2548 0.309894 26.5121 8.29635 24.4335 20.2031C24.2147 21.443 24.1417 22.7194 24.0506 23.9958C23.9959 24.7616 23.6312 25.1992 22.9748 25.2174C22.2819 25.2357 21.8443 24.7616 21.8625 23.9593C22.2089 14.0765 26.7674 6.74647 35.6291 2.42503C45.4572 -2.37049 56.8898 0.091087 64.1652 8.22341C67.1191 11.5238 68.9789 15.4076 69.7812 19.7837C69.7995 19.9114 69.8724 20.039 69.9089 20.1666C69.8906 22.847 69.8906 25.5274 69.8906 28.226Z" fill="#00477F"/>
<path d="M49.1404 8.84331C50.2527 8.84331 51.292 8.84331 52.3313 8.84331C54.2641 8.84331 55.7046 10.2473 55.7046 12.1072C55.7046 13.9853 54.2824 15.3893 52.3678 15.3893C49.888 15.3893 47.4082 15.371 44.9284 15.3893C43.2691 15.4075 42.2298 16.8115 42.7403 18.2885C43.0503 19.1637 43.8708 19.7107 44.9101 19.7472C46.0954 19.7837 47.2806 19.7107 48.4475 19.8931C52.3496 20.513 55.4311 23.8681 55.6864 27.6789C55.9781 31.818 53.5713 35.5013 49.7421 36.7777C49.5598 36.8506 49.3592 36.9053 49.1404 36.9782C49.1404 38.1087 49.1404 39.221 49.1404 40.3515C49.1404 41.2085 48.7575 41.5914 47.8823 41.5914C46.5147 41.5914 45.1472 41.5914 43.7979 41.5914C42.9956 41.5914 42.6127 41.1903 42.5944 40.3697C42.5944 39.3486 42.5944 38.3275 42.5944 37.2335C41.5004 37.2335 40.4793 37.2335 39.44 37.2335C37.4707 37.2335 36.0485 35.8295 36.0485 33.9332C36.0485 32.0733 37.4889 30.6875 39.44 30.6875C41.9015 30.6875 44.3449 30.6875 46.8065 30.6875C47.7364 30.6875 48.484 30.3046 48.9216 29.4476C49.3228 28.6636 49.2134 27.8977 48.7028 27.2049C48.2287 26.5667 47.5723 26.3479 46.8065 26.3114C45.4572 26.2567 44.0532 26.3114 42.7403 26.0379C38.9659 25.1991 36.249 21.8441 36.0849 18.0514C35.9208 14.0947 38.3459 10.5208 42.0474 9.29915C42.5033 9.15328 42.6491 8.97094 42.6309 8.49686C42.5944 7.56693 42.6127 6.637 42.6127 5.70707C42.6127 4.88654 42.9956 4.4854 43.8161 4.4854C45.2019 4.4854 46.5877 4.46716 47.9734 4.4854C48.7575 4.4854 49.1404 4.88655 49.1586 5.6706C49.1586 6.6917 49.1404 7.73104 49.1404 8.84331ZM44.7825 6.65523C44.7825 7.69457 44.7825 8.66097 44.7825 9.6456C44.7825 10.6849 44.5637 10.9584 43.5426 11.159C40.5522 11.779 38.3824 14.3499 38.3277 17.395C38.273 20.4948 40.224 23.1752 43.2144 23.8498C44.4178 24.1233 45.6942 24.0869 46.9341 24.1233C49.3957 24.178 51.3285 26.0379 51.3285 28.4812C51.3285 30.961 49.4139 32.8756 46.9159 32.8756C44.4908 32.8756 42.0474 32.8756 39.6223 32.8756C38.7653 32.8756 38.2365 33.295 38.2365 33.9514C38.2183 34.6078 38.7653 35.0454 39.6041 35.0637C40.8804 35.0637 42.1568 35.0637 43.4332 35.0637C44.4361 35.0637 44.7825 35.4101 44.7825 36.413C44.7825 37.3976 44.7825 38.4005 44.7825 39.3851C45.5666 39.3851 46.2412 39.3851 46.9706 39.3851C46.9706 38.364 46.9706 37.3794 46.9706 36.413C46.9706 35.4101 47.2076 35.1366 48.174 34.936C51.1826 34.3161 53.3524 31.7633 53.4254 28.7365C53.4983 25.6003 51.5655 22.9381 48.5022 22.2452C47.2988 21.9717 46.0224 22.0264 44.7825 21.99C42.3392 21.9353 40.4246 20.0572 40.4246 17.6138C40.4246 15.1705 42.3392 13.2559 44.8007 13.2559C47.2259 13.2559 49.6692 13.2559 52.0943 13.2559C52.9878 13.2559 53.5348 12.8183 53.5166 12.1436C53.4983 11.4872 52.9695 11.0861 52.1125 11.0678C50.8909 11.0678 49.651 11.0678 48.4293 11.0678C47.2988 11.0678 46.9706 10.7579 46.9706 9.62736C46.9706 8.66097 46.9706 7.69457 46.9706 6.72817C46.2048 6.65524 45.5483 6.65523 44.7825 6.65523Z" fill="#00477F"/>
<path d="M15.2618 16.5381C13.4202 16.3193 13.0555 16.1187 13.1102 15.3529C13.2378 13.9671 14.3866 14.3865 15.2436 14.2589C15.3894 13.4019 14.9336 12.162 16.4288 12.1073C17.1946 12.089 17.3769 12.5084 17.4863 14.2771C17.8328 14.2771 18.1792 14.2589 18.5439 14.2771C19.2186 14.2953 19.6562 14.7512 19.6379 15.3894C19.6197 15.9911 19.2003 16.4287 18.5439 16.4469C18.2157 16.4652 17.8692 16.4469 17.5046 16.4469C17.3587 17.3404 17.7963 18.5803 16.3011 18.6168C15.5718 18.6715 15.3712 18.2521 15.2618 16.5381Z" fill="#00477F"/>
<path d="M55.6682 56.9079C54.8112 56.7985 53.6624 57.1996 53.5348 55.8138C53.4619 55.048 53.8448 54.8474 55.6864 54.6286C55.814 53.7899 55.3582 52.55 56.8716 52.5135C57.6192 52.4953 57.8198 52.9146 57.9292 54.6833C58.2756 54.6833 58.622 54.6651 58.9867 54.6833C59.6431 54.7016 60.0625 55.121 60.0808 55.7409C60.099 56.3791 59.6614 56.8349 58.9867 56.8714C58.6585 56.8896 58.3121 56.8714 57.9292 56.8714C57.8015 57.7831 58.2391 59.0048 56.744 59.0412C55.9599 59.0777 55.7776 58.6766 55.6682 56.9079Z" fill="#00477F"/>
</svg>
