<svg width="68" height="70" viewBox="0 0 68 70" fill="none" xmlns="http://www.w3.org/2000/svg">
<g clip-path="url(#clip0_189_310)">
<path d="M47.4206 65.5142C47.4206 66.6074 47.4206 67.6629 47.4206 68.7183C47.4206 69.6042 47.0059 70 46.1201 70C45.1023 70 44.1034 69.9811 43.0856 70C42.4637 70.0188 42.0679 69.755 41.804 69.2272C41.2763 68.1341 40.7108 67.0409 40.1831 65.9477C40.0135 65.6085 39.825 65.4766 39.4292 65.4766C32.7195 65.4954 26.0286 65.4954 19.3188 65.4766C18.8853 65.4766 18.6968 65.6273 18.5272 65.9854C18.0183 67.0409 17.4717 68.0775 16.9629 69.133C16.6801 69.7361 16.2655 70.0188 15.587 70C14.5692 69.9623 13.5703 70 12.5525 69.9811C11.7044 69.9811 11.3086 69.5665 11.3086 68.7183C11.3086 67.6629 11.3086 66.6074 11.3086 65.5142C9.78192 65.4012 8.51913 64.8357 7.6333 63.5729C7.08672 62.8002 6.78515 61.9521 6.804 61.0097C6.804 59.6526 6.804 58.2768 6.804 56.9197C6.804 56.5428 6.72861 56.3543 6.29512 56.2601C2.41251 55.4308 -0.113069 52.0759 0.0377119 47.9671C0.169645 44.3484 3.18526 41.1631 6.97363 40.6543C11.4971 40.0323 15.7943 43.7264 15.832 48.3064C15.8509 49.6446 15.832 50.9827 15.832 52.3586C24.8789 50.21 33.8503 50.21 42.9349 52.3586C42.9349 51.8686 42.916 51.4162 42.9349 50.9639C43.0103 49.4938 42.916 47.9671 43.2364 46.5536C44.1034 42.784 47.6468 40.3527 51.5482 40.6166C55.1858 40.8804 58.2768 43.9149 58.7103 47.6467C59.1626 51.6236 56.4486 55.3931 52.4717 56.2412C52.0571 56.3355 51.944 56.4674 51.944 56.882C51.9629 58.1448 51.944 59.4265 51.944 60.6893C51.9252 63.441 50.2289 65.2881 47.4206 65.5142ZM10.6866 54.2811C11.5536 53.923 12.3452 53.6214 13.0991 53.2633C13.2876 53.1691 13.5137 52.8864 13.5137 52.679C13.5514 51.2466 13.5703 49.8142 13.5137 48.3818C13.363 44.7065 9.91386 42.1432 6.4459 43.1044C3.84493 43.8207 2.01671 46.3651 2.26173 48.9095C2.56329 51.8686 4.69307 53.9418 7.67099 54.168C8.72646 54.2434 9.02802 54.5638 9.02802 55.6193C9.02802 57.3155 9.02802 59.0118 9.02802 60.7081C9.02802 62.2725 9.9704 63.2148 11.5348 63.2148C23.4087 63.2148 35.2827 63.2148 47.1567 63.2148C48.7211 63.2148 49.6635 62.2725 49.6635 60.7081C49.6823 59.2568 49.6635 57.7867 49.6635 56.3355C49.6635 54.413 49.6634 54.413 51.5105 54.1114C51.5859 54.0926 51.6424 54.0737 51.7178 54.0737C54.4884 53.6214 56.5617 51.1147 56.4297 48.3629C56.2978 45.4039 53.9607 43.0668 50.9828 42.916C48.2499 42.784 45.6301 44.895 45.2908 47.6656C45.0835 49.3618 45.1589 51.0958 45.1589 52.811C45.1589 52.9806 45.4039 53.2256 45.5924 53.3198C46.3651 53.6779 47.1756 53.9795 47.986 54.3188C47.5714 55.0538 47.2133 55.6758 46.9305 56.1658C35.132 52.0194 23.4841 52.0005 11.7232 56.1847C11.4594 55.6569 11.1013 55.0161 10.6866 54.2811ZM13.5891 65.5142C13.5891 66.287 13.5891 67.0032 13.5891 67.7383C13.8907 67.7383 14.1546 67.7571 14.3996 67.7383C14.6635 67.7006 15.0593 67.7006 15.1535 67.5498C15.5493 66.9278 15.832 66.2305 16.1901 65.5142C15.2854 65.5142 14.4561 65.5142 13.5891 65.5142ZM45.1023 67.7194C45.1023 66.9655 45.1023 66.2493 45.1023 65.5331C44.2353 65.5331 43.406 65.5331 42.5768 65.5331C43.3872 67.776 43.4249 67.8137 45.1023 67.7194Z" fill="#00477F"/>
<path d="M46.3086 2.26171C43.5757 2.26171 40.9558 2.26171 38.3549 2.26171C36.3005 2.26171 34.2649 2.26171 32.2106 2.26171C30.1562 2.26171 29.3646 3.07216 29.3457 5.1077C29.3457 5.23963 29.3457 5.39041 29.3457 5.57889C28.6107 5.57889 27.8945 5.57889 27.1782 5.57889C26.5563 2.67636 28.6484 0 31.6263 0C42.1432 0 52.6602 0 63.1583 0C65.7781 0 67.7383 1.96015 67.7383 4.59882C67.7383 23.2202 67.7194 41.8605 67.776 60.482C67.776 62.8191 66.4001 65.2881 63.2337 65.5331C63.2337 66.5509 63.2337 67.5875 63.2337 68.6053C63.2337 69.6042 62.8568 69.9812 61.8955 69.9812C60.8778 69.9812 59.8788 69.9623 58.8611 69.9812C58.2768 70 57.881 69.7361 57.636 69.2272C57.0894 68.1152 56.5428 66.9844 55.9585 65.8912C55.8455 65.6839 55.525 65.4954 55.28 65.4766C54.5827 65.42 53.8853 65.4577 53.1314 65.4577C53.1314 64.7038 53.1314 64.0065 53.1314 63.196C53.3576 63.196 53.6026 63.196 53.8476 63.196C56.8632 63.196 59.86 63.196 62.8756 63.196C64.5907 63.196 65.4954 62.2913 65.4954 60.595C65.4954 42.0113 65.4954 23.4276 65.4954 4.84383C65.4954 3.1287 64.5907 2.22402 62.8945 2.22402C58.3522 2.22402 53.8099 2.22402 49.2865 2.22402C49.0792 2.22402 48.8718 2.22402 48.5891 2.22402C48.5891 10.14 48.5891 17.9995 48.5891 25.8966C47.8164 25.8966 47.119 25.8966 46.3463 25.8966C46.3086 18.0749 46.3086 10.2154 46.3086 2.26171ZM58.371 65.5143C59.1438 67.7194 59.37 67.9079 60.9155 67.6629C60.9155 66.9467 60.9155 66.2493 60.9155 65.5143C60.0673 65.5143 59.238 65.5143 58.371 65.5143Z" fill="#00477F"/>
<path d="M18.0937 23.7102C15.4362 23.7102 12.8918 23.7102 10.3662 23.7102C9.6123 23.7102 8.8584 23.7102 8.1045 23.7102C7.14327 23.7102 6.70977 23.2956 6.78516 22.3155C6.89825 20.4684 7.06788 18.6214 7.21866 16.7743C7.42598 14.2299 7.65215 11.6666 7.89717 9.12216C7.97256 8.21747 8.34951 7.89706 9.27305 7.89706C11.9494 7.89706 14.6258 7.89706 17.3021 7.89706C17.5283 7.89706 17.7545 7.89706 18.0372 7.89706C18.0372 7.14316 18.0372 6.4458 18.0372 5.69189C18.7911 5.69189 19.5073 5.69189 20.2989 5.69189C20.2989 6.4081 20.2989 7.10547 20.2989 7.89706C20.6193 7.89706 20.8832 7.89706 21.1282 7.89706C23.7669 7.89706 26.3867 7.89706 29.0253 7.89706C30.062 7.89706 30.4012 8.17978 30.4766 9.1787C30.8159 13.0613 31.1363 16.9439 31.4567 20.8265C31.4944 21.3354 31.5698 21.8631 31.5886 22.372C31.6075 23.2956 31.2117 23.6914 30.2693 23.6914C27.2348 23.6914 24.2004 23.6914 21.1659 23.6914C20.902 23.6914 20.657 23.6914 20.3177 23.6914C20.3177 24.4453 20.3177 25.1615 20.3177 25.9154C19.545 25.9154 18.8476 25.9154 18.0749 25.9154C18.0937 25.2369 18.0937 24.5207 18.0937 23.7102ZM28.2903 10.2153C22.1648 10.2153 16.1524 10.2153 10.0646 10.2153C9.74424 13.966 9.44268 17.679 9.14111 21.4296C15.8697 21.4296 22.5041 21.4296 29.2138 21.4296C28.9123 17.679 28.6107 13.966 28.2903 10.2153Z" fill="#00477F"/>
<path d="M8.99028 38.3548C8.25522 38.3548 7.55786 38.3548 6.82281 38.3548C6.80396 38.1663 6.78511 37.9967 6.78511 37.8082C6.78511 36.0931 6.76626 34.378 6.78511 32.6628C6.80396 30.2126 8.78296 28.2336 11.2331 28.2336C23.3145 28.2336 35.3958 28.2336 47.4771 28.2336C49.9273 28.2336 51.9063 30.2126 51.9251 32.6628C51.944 34.491 51.9251 36.3381 51.9251 38.1663C51.9251 38.204 51.9063 38.2606 51.8874 38.3548C51.1901 38.3548 50.4739 38.3548 49.6823 38.3548C49.6823 36.6774 49.6823 35.0188 49.6823 33.3602C49.6823 31.3246 48.853 30.4954 46.8174 30.4954C35.1508 30.4954 23.5029 30.4954 11.8363 30.4954C9.89496 30.4954 9.04682 31.3435 9.04682 33.2848C9.04682 34.9057 9.04682 36.5266 9.04682 38.1475C9.02797 38.1852 9.00913 38.2229 8.99028 38.3548Z" fill="#00477F"/>
<path d="M22.636 35.0376C23.3899 35.0376 24.0684 35.0376 24.8035 35.0376C24.8035 35.7538 24.8035 36.4512 24.8035 37.2051C24.1061 37.2051 23.3899 37.2051 22.636 37.2051C22.636 36.5077 22.636 35.7915 22.636 35.0376Z" fill="#00477F"/>
<path d="M36.0555 37.243C35.3204 37.243 34.6419 37.243 33.9069 37.243C33.9069 36.5268 33.9069 35.8105 33.9069 35.0566C34.6042 35.0566 35.3204 35.0566 36.0555 35.0566C36.0555 35.7917 36.0555 36.5079 36.0555 37.243Z" fill="#00477F"/>
<path d="M16.9817 40.6731C17.7356 40.6731 18.433 40.6731 19.1492 40.6731C19.1492 41.4082 19.1492 42.0867 19.1492 42.8406C18.4518 42.8406 17.7356 42.8406 16.9817 42.8406C16.9817 42.1432 16.9817 41.4458 16.9817 40.6731Z" fill="#00477F"/>
<path d="M30.4389 42.8782C29.7038 42.8782 29.0065 42.8782 28.2714 42.8782C28.2714 42.1432 28.2714 41.4458 28.2714 40.6919C28.9876 40.6919 29.7038 40.6919 30.4389 40.6919C30.4389 41.4081 30.4389 42.1055 30.4389 42.8782Z" fill="#00477F"/>
<path d="M39.5611 40.6543C40.2962 40.6543 40.9747 40.6543 41.7097 40.6543C41.7097 41.3705 41.7097 42.0867 41.7097 42.8406C41.0124 42.8406 40.2962 42.8406 39.5611 42.8406C39.5611 42.1244 39.5611 41.3894 39.5611 40.6543Z" fill="#00477F"/>
<path d="M22.5983 48.4948C22.5983 47.7598 22.5983 47.0812 22.5983 46.3462C23.3145 46.3462 24.0307 46.3462 24.7846 46.3462C24.7846 47.0436 24.7846 47.7598 24.7846 48.4948C24.0495 48.4948 23.3333 48.4948 22.5983 48.4948Z" fill="#00477F"/>
<path d="M33.9069 46.3274C34.6419 46.3274 35.3393 46.3274 36.0743 46.3274C36.0743 47.0436 36.0743 47.7598 36.0743 48.5137C35.3581 48.5137 34.6608 48.5137 33.9069 48.5137C33.9069 47.7975 33.9069 47.1001 33.9069 46.3274Z" fill="#00477F"/>
<path d="M11.2897 48.5703C11.2897 50.455 9.78191 51.944 7.8783 51.944C5.99354 51.944 4.50458 50.4362 4.50458 48.5326C4.50458 46.6101 6.03123 45.14 7.97254 45.1589C9.8196 45.1777 11.2897 46.7044 11.2897 48.5703ZM7.93484 49.6634C8.51912 49.6446 9.04685 49.0603 9.028 48.4949C8.99031 47.9106 8.40603 47.3829 7.8406 47.4206C7.27518 47.4583 6.78514 48.0049 6.78514 48.5514C6.78514 49.1357 7.35057 49.6823 7.93484 49.6634Z" fill="#00477F"/>
<path d="M54.1869 48.5138C54.1869 50.4174 52.7168 51.9252 50.832 51.9441C48.9284 51.9629 47.4206 50.474 47.4017 48.5892C47.3829 46.6479 48.8907 45.1589 50.8131 45.1589C52.6791 45.1589 54.1869 46.6667 54.1869 48.5138ZM50.7943 49.6635C51.3786 49.6635 51.9251 49.0981 51.9063 48.5138C51.8875 47.9295 51.322 47.383 50.7378 47.4206C50.1912 47.4395 49.6634 47.9672 49.6634 48.5327C49.6634 49.1169 50.2289 49.6824 50.7943 49.6635Z" fill="#00477F"/>
</g>
<defs>
<clipPath id="clip0_189_310">
<rect width="67.7571" height="70" fill="white"/>
</clipPath>
</defs>
</svg>
